<?xml version="1.0" encoding="UTF-8"?>
<svg id="Layer_1" data-name="Layer 1" xmlns="http://www.w3.org/2000/svg" viewBox="0 0 322.44 85.61">
  <defs>
    <style>
      .cls-1 {
        fill: #262055;
      }

      .cls-1, .cls-2, .cls-3, .cls-4, .cls-5, .cls-6 {
        stroke-width: 0px;
      }

      .cls-2 {
        fill: #5c849d;
      }

      .cls-3 {
        fill: #fff;
      }

      .cls-4 {
        fill: #b9dee0;
      }

      .cls-5 {
        fill: #80baba;
      }

      .cls-6 {
        fill: #d4c132;
      }
    </style>
  </defs>
  <g>
    <g>
      <path class="cls-1" d="M227.25,50.1c-.35,0-.46-.21-.55-.51-.61-2.03-.73-4.14-1-6.22-.24-1.79-.41-3.59-.61-5.39,0-.08.01-.18-.15-.25-.41.58-.82,1.16-1.23,1.75-1.36,1.92-2.74,3.83-4.08,5.77-.84,1.22-1.72,2.42-2.59,3.63-.29.4-.66.73-.98,1.09-.13.15-.33.18-.53.18-2.21,0-4.42,0-6.63,0-.34,0-.54-.18-.66-.49-.26-.62-.39-1.26-.46-1.92-.26-2.57-.18-5.15-.18-7.72,0-6.14.01-12.29,0-18.43,0-.38.06-.56.5-.56,2.73.02,5.47.01,8.2,0,.37,0,.46.09.46.46,0,4.07,0,8.14,0,12.22,0,.48,0,.95,0,1.53.32-.22.37-.49.5-.69,2.5-3.83,4.99-7.66,7.48-11.49.37-.56.75-1.11,1.08-1.7.14-.24.3-.31.54-.31,2.61,0,5.22,0,7.83-.03.3,0,.38.09.4.37.17,2.3.36,4.59.49,6.89.11,1.96.29,3.91.44,5.91.39-.18.45-.56.62-.82,1.06-1.64,2.08-3.3,3.12-4.95,1.18-1.87,2.36-3.74,3.54-5.61.32-.51.66-1.02.97-1.54.12-.2.27-.23.48-.23,3.12,0,6.23,0,9.43,0-.6.95-1.16,1.86-1.74,2.75-2.27,3.5-4.55,6.99-6.82,10.49-1.98,3.05-3.92,6.12-5.92,9.15-1.22,1.85-2.32,3.8-3.78,5.49-.38.44-.74.92-1.29,1.19-.59,0-1.18-.01-1.76-.01-1.71,0-3.42,0-5.13,0Z"/>
      <path class="cls-1" d="M279.92,42.78c-.8,1.76-2,3.15-3.31,4.45-.82.81-1.69,1.56-2.49,2.38-.43.44-.9.57-1.49.57-3.15,0-6.3.01-9.45,0-5.34,0-10.69-.02-16.03-.03-.48,0-.96,0-1.5,0,.93-2.55,1.83-4.99,2.72-7.44,1.72-4.72,3.42-9.44,5.14-14.16.87-2.4,1.78-4.79,2.64-7.19.13-.36.35-.32.61-.32,3.71,0,7.42,0,11.13,0,6.42,0,12.85,0,19.27,0,.15,0,.31,0,.52,0-.22.57-.54,1.02-.85,1.47-1.29,1.82-2.67,3.56-4.29,5.1-.69.66-1.45.96-2.43.95-4.4-.05-8.81-.04-13.21-.04-.73,0-1.46.03-2.19,0-.42-.02-.63.16-.76.54-.6,1.7-1.22,3.4-1.84,5.09-.31.84-.63,1.68-.96,2.57.3,0,.42-.18.55-.32,1.43-1.4,2.86-2.79,4.28-4.2.15-.15.32-.19.52-.19,4.07,0,8.15,0,12.22,0,.03,0,.06.02.12.04-.04.28-.29.42-.46.59-2.28,2.16-4.58,4.31-6.86,6.48-.32.31-.67.39-1.09.39-3.26,0-6.51.02-9.77,0-.4,0-.59.12-.72.5-.26.76-.54,1.5-.85,2.24-.16.38-.08.5.32.5,1.53,0,3.06,0,4.6,0,5.22,0,10.45,0,15.67.01.07,0,.14,0,.26.02Z"/>
      <path class="cls-1" d="M174.71,50.1c-1.94-.07-3.83-.4-5.68-1.01-2.59-.87-4.03-2.64-4.37-5.36-.26-2.1.1-4.12.59-6.14,1.2-4.92,3.13-9.6,4.77-14.38.21-.62.47-1.23.68-1.86.07-.22.15-.31.39-.31,3.36,0,6.72,0,10.08,0,.03,0,.06.03.07.03-1.39,4.11-2.78,8.21-4.16,12.33-.5,1.5-1.03,2.99-1.28,4.56-.16,1.01-.04,1.98.39,2.9.44.96,1.19,1.61,2.24,1.76,1.47.22,2.96.26,4.42-.02,1.96-.37,3.37-1.62,4.63-3.1,1.25-1.48,1.79-3.28,2.43-5.04,1.32-3.62,2.63-7.25,3.94-10.87.26-.73.55-1.45.81-2.18.1-.29.29-.39.59-.39,3.32,0,6.65,0,10.04,0-.21.61-.41,1.2-.62,1.79-1.74,4.74-3.45,9.5-5.24,14.22-1.06,2.8-2.32,5.51-4.12,7.93-1.47,1.97-3.3,3.48-5.62,4.34-1.09.4-2.2.77-3.39.78-2,0-4,0-6,0-1.86,0-3.72,0-5.58,0Z"/>
      <path class="cls-1" d="M301.03,50.09c-2.47-.11-4.87-.56-7.2-1.37-2.9-1.02-5.3-2.69-6.9-5.38-.92-1.54-1.31-3.25-1.47-5.01-.38-4.15.97-7.77,3.39-11.06,1.24-1.69,2.75-3.13,4.52-4.25,1.94-1.23,4.03-1.98,6.38-1.97,7,.02,14,0,21,0,.56,0,1.11,0,1.7,0-.01.23-.15.39-.27.54-1.79,2.27-3.61,4.5-5.79,6.43-.35.31-.72.51-1.21.51-4.09,0-8.18,0-12.27.01-.09,0-.18,0-.26,0-2.21-.27-3.69.91-4.95,2.52-.97,1.24-1.6,2.64-1.95,4.17-.28,1.19.12,2.24.62,3.26.71,1.43,1.71,2.61,3.04,3.51.77.52,1.6.78,2.55.77,4.18-.02,8.35,0,12.56,0,.03.26-.13.43-.25.6-1.69,2.3-3.41,4.57-5.62,6.42-.16.13-.31.28-.51.36-.57,0-1.15-.02-1.72-.02-1.79,0-3.58,0-5.37,0Z"/>
    </g>
    <g>
      <path class="cls-1" d="M242.19,75.49c-1.8,0-3.61,0-5.41,0-.2,0-.4-.02-.61-.02-.26,0-.26-.1-.18-.31,1.48-4.04,2.95-8.08,4.41-12.12.1-.27.23-.38.54-.38,3.45,0,6.9,0,10.36,0,.77,0,1.53.08,2.07.74.41.5.59,1.09.69,1.71.25,1.55-.14,2.86-1.47,3.81-.28.2-.39.35-.14.74.31.5.54,1.05.25,1.75-.28.65-.51,1.33-.83,1.96-.55,1.07-1.46,1.68-2.61,1.92-.62.13-1.26.21-1.9.21-1.73,0-3.45,0-5.18,0h0ZM242.78,69.38c.2-.1.3-.12.36-.18.46-.41.94-.81,1.38-1.25.27-.27.55-.39.94-.39.99.02,1.99,0,2.98,0,.52,0,.9-.38.91-.9,0-.4-.3-.66-.84-.67-1.37-.01-2.73,0-4.1-.01-.23,0-.39.06-.48.28-.37,1-.74,1.99-1.16,3.11ZM244.26,72.18s0,0,0,0c.68,0,1.37.02,2.05,0,.69-.03,1.19-.37,1.47-1.02.18-.42.14-.49-.31-.49-1.32,0-2.64-.01-3.97-.01q-1.12,0-1.56,1.03c-.18.42-.14.49.31.5.67,0,1.34,0,2.01,0Z"/>
      <path class="cls-1" d="M230.99,67.53c-.87.82-1.69,1.6-2.51,2.38-.23.21-.46.42-.68.63-.1.1-.22.22-.36.2-.55-.07-.69.25-.81.71-.2.71-.51,1.4-.85,2.06-.56,1.09-1.5,1.62-2.66,1.83-1.33.23-2.67.16-4,.16-1.9,0-3.8,0-5.69,0-.64,0-1.27-.08-1.88-.28-.66-.22-.96-.65-.89-1.35.13-1.22.53-2.36,1.23-3.38.29-.42.66-.74,1.11-.98.15-.08.29-.17.18-.35-.43-.68-.31-1.41-.17-2.12.17-.87.54-1.69.98-2.45.65-1.14,1.75-1.58,2.97-1.77.82-.13,1.64-.16,2.47-.16,2.61,0,5.23-.01,7.84-.01.1,0,.23-.07.29.06.04.1-.06.17-.11.24-.65.99-1.45,1.87-2.23,2.75-.18.2-.43.3-.73.3-1.65-.01-3.3,0-4.95,0-1.04,0-1.24.18-1.58,1.16-.27.79-.57,1.57-.86,2.36-.04.11-.11.22-.05.39.19,0,.32-.12.46-.24.73-.65,1.47-1.29,2.2-1.94.19-.17.4-.25.67-.25,3.48,0,6.97,0,10.45,0,.03,0,.06.02.19.06ZM219.29,70.66s0-.01,0-.02c-.71,0-1.43,0-2.14,0-.47,0-.71.3-.74.9-.02.43.23.61.64.62,1.09,0,2.17.07,3.26,0,.64-.04,1.2-.32,1.44-1.04.12-.36.07-.48-.31-.47-.71.01-1.43,0-2.14,0Z"/>
      <path class="cls-1" d="M304.18,75.5c-1.3,0-2.5-.06-3.69.02-1.03.07-1.82-.18-2.56-.95-1.13-1.17-2.38-2.23-3.58-3.33-.41-.38-.47-.35-.66.19-.43,1.21-.89,2.42-1.33,3.63-.11.32-.3.45-.66.44-1.24-.03-2.49-.02-3.73-.01-.32,0-.46-.04-.32-.41.95-2.56,1.88-5.13,2.82-7.7.53-1.46,1.08-2.91,1.6-4.37.09-.24.18-.36.45-.36,3.3.01,6.6.01,9.9.02.03,0,.06,0,.09,0,2.05-.05,2.87.82,3.12,2.94.06.49.06,1-.02,1.49-.26,1.46-1.26,2.26-2.51,2.83-.95.43-1.98.52-2.98.72-.15.03-.36-.04-.41.14-.06.19.16.28.28.39,1.34,1.36,2.68,2.73,4.02,4.09.04.04.08.09.19.23ZM294.5,69.36c.57-.55,1.1-1.04,1.62-1.55.18-.17.35-.27.61-.27,1.07,0,2.15-.05,3.22,0,.77.04.95-.39.99-.99.03-.39-.15-.58-.55-.58-1.48,0-2.96,0-4.43,0-.24,0-.35.1-.43.33-.22.68-.49,1.34-.7,2.02-.1.33-.34.62-.33,1.04Z"/>
      <path class="cls-1" d="M314.54,62.65c1.63,0,3.27-.01,4.9,0,.63,0,1.29.04,1.84.41.87.59,1.17,1.47,1.16,2.46,0,1.09-.32,2.12-.85,3.06-.94,1.65-2.04,3.19-3.48,4.46-1.63,1.44-3.58,2.16-5.72,2.34-2.53.21-5.07.07-7.6.09-.4,0-.27-.23-.19-.43.68-1.85,1.36-3.7,2.03-5.55.8-2.19,1.59-4.37,2.38-6.56.08-.23.21-.28.45-.28,1.69.01,3.39,0,5.09,0h0ZM310.86,72.21c2.11-.12,5.63-1.77,6.43-4.95.15-.61-.13-1.33-.95-1.28-1.01.06-2.02.05-3.03,0-.53-.03-.76.21-.92.64-.62,1.7-1.24,3.41-1.86,5.11-.16.43-.12.5.34.48Z"/>
      <path class="cls-1" d="M264.19,62.65c1.28-.01,2.55,0,3.81.27,1.91.4,3.11,1.4,3.47,3.4.21,1.13.01,2.22-.33,3.26-.95,2.88-2.89,4.8-5.82,5.67-.67.2-1.37.27-2.07.26-1.61-.04-3.23.11-4.84-.17-1.48-.26-2.8-.79-3.52-2.22-.56-1.1-.61-2.27-.38-3.46.59-3.18,2.5-5.3,5.4-6.59.78-.35,1.63-.38,2.47-.4.61-.02,1.21,0,1.82,0ZM263.73,65.99c-.62.06-1.35-.13-2.03.22-.68.35-1.25.82-1.73,1.39-.59.69-1,1.46-.83,2.43.2,1.08,1.01,2.07,1.87,2.15,1.47.13,2.89.07,4.13-.97,1.05-.89,1.73-1.88,1.67-3.3-.06-1.25-.74-1.92-1.98-1.91-.34,0-.68,0-1.11,0Z"/>
      <path class="cls-1" d="M183.55,62.65c-.48.87-1.12,1.52-1.69,2.23-.67.85-1.45,1.18-2.56,1.13-2.1-.09-4.2-.02-6.3-.02-.48,0-.85.32-.9.81-.03.32.39.71.84.71,1.32.02,2.64.01,3.97.03.42,0,.84-.04,1.25.09,1.2.38,1.71,1.35,2.01,2.44.5,1.84-.3,3.88-1.87,4.95-.39.27-.82.45-1.3.45-4,0-8,0-12,0-.14,0-.28.02-.43-.09.58-.93,1.32-1.75,1.95-2.64.33-.47.71-.54,1.22-.53,2.41.02,4.82.01,7.23,0,.25,0,.59.09.71-.21.13-.33.12-.71-.02-1.05-.1-.24-.37-.19-.58-.19-1.31,0-2.62-.04-3.92,0-1.47.05-2.53-.58-3.22-1.81-.71-1.27-.67-2.56.07-3.81.27-.46.58-.89.94-1.27.7-.73,1.51-1.21,2.58-1.2,3.47.01,6.94-.01,10.41-.02.51,0,1.02,0,1.61,0Z"/>
      <path class="cls-1" d="M187.64,68.22c.49-.21.84-.57,1.24-.85.93-.63,1.82-1.31,2.72-1.97,1.05-.77,2.13-1.5,3.15-2.3.53-.42,1.1-.46,1.71-.45,1.14.01,2.29.03,3.43.07.2,0,.38-.15.62-.04-.44.57-1.07.9-1.61,1.33-1.67,1.31-3.36,2.59-5.05,3.88-.41.31-.81.64-1.23.91-.31.2-.3.36-.1.63,1.17,1.59,2.33,3.18,3.49,4.78.24.33.47.65.65,1.02.1.21.06.27-.17.27-1.51,0-3.02-.02-4.53-.02-.29,0-.45-.19-.61-.38-1.35-1.64-2.71-3.29-4.06-4.93-.09-.11-.15-.29-.29-.27-.18.03-.15.24-.2.38-.39,1.07-.77,2.13-1.17,3.19-.21.57-.43,1.13-.64,1.7-.07.2-.18.31-.41.31-1.32,0-2.64-.01-3.97-.02-.28,0-.44-.02-.3-.4,1.48-4,2.95-8.01,4.41-12.03.11-.29.24-.41.56-.41,1.29.01,2.58,0,3.87-.02.31,0,.39.05.27.36-.56,1.53-1.11,3.06-1.67,4.59-.07.19-.18.36-.13.64Z"/>
      <path class="cls-1" d="M274.31,75.46c-1.59,0-3.17,0-4.76,0-.14,0-.35.09-.42-.09-.05-.13.11-.25.19-.35,1.3-1.67,2.59-3.33,3.89-4.99,1.58-2.02,3.16-4.03,4.73-6.05.29-.37.63-.68.99-.98.29-.24.62-.34.99-.34,1.12,0,2.24,0,3.36-.01.51,0,.8.22,1,.67.53,1.18.69,2.45.88,3.7.41,2.67.8,5.35,1.24,8.02.07.42-.05.47-.39.47-1.21,0-2.43-.01-3.64,0-.29,0-.33-.16-.36-.37-.09-.6-.19-1.2-.29-1.79-.02-.11.01-.28-.15-.3-.12-.01-.17.12-.22.21-.44.7-1,1.3-1.56,1.91-.22.23-.45.34-.77.34-1.57,0-3.14,0-4.71,0,0,0,0-.02,0-.03ZM280.75,66.84c-.11,0-.15.09-.21.16-1.23,1.62-2.45,3.24-3.68,4.85-.07.09-.14.18-.08.29.05.1.16.08.25.08,1.41,0,2.83-.02,4.24,0,.32,0,.31-.16.28-.39-.23-1.53-.5-3.06-.65-4.61-.01-.13-.03-.28-.15-.38Z"/>
      <path class="cls-1" d="M204.03,62.64c.59,0,1.18,0,1.77,0,.57,0,.6.02.4.56-.61,1.68-1.22,3.35-1.83,5.03-.84,2.3-1.7,4.6-2.54,6.9-.07.2-.15.36-.41.36-1.34-.01-2.68-.02-4.01-.02-.37,0-.35-.14-.24-.42,1.4-3.82,2.79-7.64,4.18-11.46q.34-.92,1.33-.92c.45,0,.9,0,1.35,0v-.02Z"/>
    </g>
  </g>
  <g>
    <path class="cls-6" d="M150.12,54.17c-.17,1.26-.29,2.53-.51,3.78-.23,1.3-.51,2.58-.83,3.86-.37,1.45-.85,2.84-1.53,4.18-.49.97-1.18,1.77-2.06,2.43-.67.5-1.34,1.02-2.03,1.49-.62.42-1.28.77-1.9,1.17-1.99,1.3-4.08,2.44-6.19,3.54-1.43.75-2.86,1.47-4.31,2.17-2.16,1.05-4.35,2.01-6.55,2.96-1.7.73-3.44,1.38-5.17,2.04-1.05.4-2.13.75-3.2,1.09-1.14.36-2.29.72-3.46,1.02-.92.23-1.85.46-2.78.66-1.25.28-2.51.5-3.78.69-.98.14-1.97.15-2.95.27-1.05.12-2.08,0-3.11-.12-2.13-.25-4.11-.98-5.88-2.22-2.1-1.48-4-3.16-5.65-5.12-1.8-2.13-3.26-4.49-4.44-7.02-.86-1.84-1.6-3.73-2.29-5.64-.56-1.54-1.12-3.09-2.08-4.46-.85-1.21-1.92-1.98-3.47-1.98-1.18,0-2.3.15-3.34.76-.73.43-1.2,1.07-1.64,1.77-.71,1.15-1.21,2.4-1.65,3.67-.91,2.63-1.83,5.26-3.15,7.71-1.34,2.48-2.93,4.77-4.93,6.78-1.37,1.38-2.85,2.62-4.43,3.75-1.01.72-2.11,1.26-3.32,1.6-1.93.54-3.89.67-5.86.54-1.28-.08-2.56-.23-3.83-.45-1.31-.23-2.61-.5-3.9-.82-1.23-.31-2.45-.61-3.67-.97-1.29-.38-2.57-.82-3.84-1.28-1.51-.55-3.02-1.1-4.51-1.68-2-.78-3.97-1.64-5.92-2.53-3.37-1.54-6.67-3.21-9.9-5.01-1.93-1.08-3.83-2.19-5.65-3.46-.85-.59-1.74-1.15-2.38-2-.72-.96-1.21-2.03-1.65-3.14-.42-1.08-.73-2.19-1-3.31-.21-.88-.38-1.78-.52-2.68-.21-1.27-.35-2.55-.54-3.82-.03-.23-.04-.47-.07-.71.04-.65-.08-1.29-.14-1.93-.04-.4.03-.82-.14-1.21v-7.07c.08-.33.11-.66.13-1,.02-.39.08-.77.11-1.15.07-.81.13-1.61.2-2.42.17-1.33.27-2.66.51-3.97.31-1.7.65-3.39,1.13-5.06.54-1.88,1.18-3.72,2.01-5.48,1.15-2.43,2.79-4.47,5.03-6.01,2.06-1.42,4.16-2.76,6.34-3.96,2.49-1.38,5.03-2.64,7.65-3.75,1.37-.58,2.73-1.18,4.12-1.71,1.48-.57,2.99-1.06,4.49-1.57,1.16-.4,2.33-.79,3.5-1.14,1.15-.35,2.32-.65,3.48-.96,1.04-.28,2.08-.58,3.13-.84.94-.24,1.89-.44,2.84-.66.8-.18,1.6-.38,2.4-.55.87-.18,1.74-.34,2.61-.5.65-.12,1.3-.24,1.95-.36.76-.13,1.52-.27,2.29-.39.71-.12,1.43-.23,2.15-.34.88-.13,1.75-.28,2.63-.39,1.16-.15,2.33-.29,3.5-.43.55-.06,1.1-.09,1.64-.15,1.34-.14,2.69-.23,4.04-.34,2.17-.18,4.35-.29,6.52-.36,1.68-.05,3.35.07,5.03.15,1.75.08,3.49.25,5.24.37,1.36.09,2.71.26,4.07.4,1.02.11,2.04.21,3.05.35,1.31.19,2.62.3,3.91.63.62.16,1.28.14,1.92.26,1.01.19,2.02.36,3.03.55.89.17,1.79.33,2.68.51.78.16,1.55.35,2.33.53.73.17,1.46.33,2.18.51.89.22,1.78.45,2.67.68,1.05.27,2.09.54,3.13.84,1.04.3,2.07.63,3.09.95,1.56.49,3.11,1.02,4.65,1.58,1.62.59,3.22,1.22,4.8,1.89,1.16.49,2.32,1.01,3.46,1.55,2.12,1.02,4.22,2.06,6.26,3.24,2.16,1.25,4.26,2.58,6.26,4.08,1.27.95,2.24,2.18,3.1,3.5.91,1.41,1.64,2.91,2.18,4.49.49,1.43.97,2.87,1.31,4.35.37,1.6.64,3.23.9,4.85.18,1.16.3,2.33.45,3.49.09.95.1,1.9.28,2.85v8.42c-.15,1.04-.2,2.09-.28,3.14ZM75.31,2.13c-1.42-.03-3.31.11-5.2.23-3.47.23-6.94.55-10.4.99-3.55.46-7.09,1-10.6,1.71-2.38.48-4.74,1.01-7.1,1.59-2.37.59-4.72,1.26-7.05,1.96-1.62.49-3.24,1.02-4.82,1.62-.87.33-1.75.65-2.63.98-.83.32-1.67.62-2.49.97-1.36.58-2.69,1.22-4.03,1.82-1.32.59-2.6,1.29-3.87,2-1.17.66-2.35,1.3-3.49,2.02-.95.6-1.91,1.18-2.82,1.83-.79.57-1.61,1.13-2.29,1.84-.91.95-1.6,2.06-2.2,3.22-1.03,1.97-1.75,4.05-2.31,6.19-.58,2.23-.98,4.5-1.28,6.78-.26,1.95-.36,3.91-.5,5.87-.27,3.74.02,7.46.39,11.17.17,1.71.44,3.4.84,5.07.38,1.63.79,3.25,1.56,4.75.38.75.79,1.48,1.49,1.99,1.68,1.24,3.46,2.34,5.27,3.39,3.23,1.87,6.56,3.57,9.93,5.17,3.45,1.63,6.97,3.11,10.57,4.41,3.59,1.3,7.24,2.39,11,3.09,2.75.51,5.5.84,8.29.4,1.19-.19,2.36-.47,3.38-1.14,3.34-2.19,6.1-4.95,8.24-8.33,1.32-2.09,2.32-4.33,3.15-6.64.7-1.95,1.32-3.93,2.25-5.79.51-1.02,1.11-1.98,1.97-2.75,1.51-1.35,3.33-1.81,5.3-1.79,2.21.02,3.94.96,5.22,2.74,1.09,1.53,1.73,3.28,2.41,5.01.6,1.53,1.14,3.09,1.8,4.6,1.07,2.41,2.33,4.71,3.96,6.79,1.57,2,3.44,3.66,5.46,5.2,2.23,1.7,4.75,2.3,7.49,2.25,2.2-.04,4.37-.35,6.51-.79,2.27-.46,4.49-1.11,6.69-1.81,3.01-.96,5.95-2.12,8.86-3.35,2.86-1.21,5.67-2.55,8.43-3.96,3.64-1.86,7.2-3.87,10.59-6.18.59-.4,1.19-.83,1.57-1.42.58-.9,1.01-1.89,1.35-2.92.59-1.81.99-3.67,1.29-5.55.43-2.62.64-5.27.79-7.92.14-2.54.04-5.08-.19-7.62-.15-1.63-.26-3.27-.52-4.89-.18-1.15-.37-2.29-.6-3.43-.24-1.17-.51-2.33-.82-3.48-.47-1.71-1.14-3.36-1.94-4.94-.77-1.52-1.69-2.92-3.05-3.98-2.39-1.86-4.96-3.45-7.6-4.92-1.32-.73-2.67-1.42-4.04-2.08-1.1-.52-2.2-1.03-3.32-1.51-.96-.42-1.92-.86-2.91-1.22-1.37-.49-2.73-1.02-4.1-1.5-1.25-.44-2.52-.83-3.78-1.23-1.09-.35-2.19-.68-3.3-.97-1.34-.35-2.67-.77-4.03-1.06-.84-.18-1.66-.43-2.49-.61-.93-.2-1.86-.4-2.8-.6-1.91-.41-3.83-.79-5.76-1.11-1.52-.25-3.04-.46-4.56-.69-3.25-.48-6.51-.8-9.78-1.06-2.3-.18-4.6-.34-7.38-.42Z"/>
    <path class="cls-1" d="M75.31,2.13c2.78.07,5.08.23,7.38.42,3.27.26,6.54.58,9.78,1.06,1.52.22,3.04.44,4.56.69,1.93.32,3.84.7,5.76,1.11.93.2,1.87.4,2.8.6.84.18,1.66.43,2.49.61,1.36.3,2.69.71,4.03,1.06,1.11.29,2.21.62,3.3.97,1.26.4,2.53.8,3.78,1.23,1.38.48,2.73,1.01,4.1,1.5.99.36,1.94.8,2.91,1.22,1.12.48,2.22.98,3.32,1.51,1.37.65,2.72,1.34,4.04,2.08,2.64,1.47,5.21,3.05,7.6,4.92,1.36,1.06,2.29,2.47,3.05,3.98.8,1.59,1.47,3.23,1.94,4.94.31,1.15.59,2.31.82,3.48.23,1.14.41,2.28.6,3.43.26,1.62.37,3.26.52,4.89.23,2.54.33,5.08.19,7.62-.15,2.65-.36,5.29-.79,7.92-.31,1.88-.7,3.74-1.29,5.55-.33,1.03-.76,2.02-1.35,2.92-.38.59-.98,1.02-1.57,1.42-3.38,2.31-6.94,4.32-10.59,6.18-2.77,1.41-5.57,2.75-8.43,3.96-2.91,1.23-5.85,2.39-8.86,3.35-2.2.7-4.42,1.35-6.69,1.81-2.15.44-4.32.76-6.51.79-2.73.04-5.26-.56-7.49-2.25-2.01-1.54-3.89-3.2-5.46-5.2-1.63-2.08-2.89-4.38-3.96-6.79-.67-1.51-1.2-3.06-1.8-4.6-.68-1.73-1.31-3.48-2.41-5.01-1.28-1.78-3.01-2.72-5.22-2.74-1.98-.02-3.79.45-5.3,1.79-.86.77-1.46,1.74-1.97,2.75-.94,1.86-1.55,3.84-2.25,5.79-.84,2.32-1.84,4.56-3.15,6.64-2.13,3.38-4.9,6.14-8.24,8.33-1.03.67-2.19.96-3.38,1.14-2.79.44-5.54.11-8.29-.4-3.76-.69-7.41-1.79-11-3.09-3.59-1.3-7.11-2.78-10.57-4.41-3.38-1.6-6.7-3.3-9.93-5.17-1.81-1.05-3.59-2.15-5.27-3.39-.7-.52-1.11-1.25-1.49-1.99-.76-1.5-1.18-3.12-1.56-4.75-.39-1.67-.66-3.37-.84-5.07-.37-3.71-.67-7.43-.39-11.17.14-1.96.24-3.92.5-5.87.31-2.28.71-4.55,1.28-6.78.56-2.14,1.28-4.22,2.31-6.19.6-1.16,1.29-2.27,2.2-3.22.68-.71,1.5-1.27,2.29-1.84.91-.65,1.88-1.23,2.82-1.83,1.13-.72,2.31-1.37,3.49-2.02,1.27-.71,2.54-1.41,3.87-2,1.35-.6,2.68-1.24,4.03-1.82.82-.35,1.66-.65,2.49-.97.87-.33,1.76-.64,2.63-.98,1.59-.6,3.2-1.13,4.82-1.62,2.34-.7,4.68-1.37,7.05-1.96,2.35-.59,4.72-1.12,7.1-1.59,3.51-.71,7.05-1.25,10.6-1.71,3.46-.45,6.92-.77,10.4-.99,1.89-.12,3.78-.26,5.2-.23ZM78.28,4.88c-.54-.1-1.09-.08-1.63-.12-1.67-.12-3.33.04-4.99.18-.45.03-.9.05-1.35.08-.92-.01-1.82.11-2.73.17-1.32.1-2.64.23-3.96.35-.29.03-.59.05-.88.08-1.11.12-2.22.22-3.32.37-1.62.21-3.25.46-4.87.7-1.01.15-2.03.3-3.04.49-1.42.26-2.84.57-4.27.85-1.73.34-3.45.74-5.16,1.15-1.42.34-2.83.72-4.23,1.13-1.61.47-3.23.92-4.82,1.45-1.69.56-3.36,1.21-5.03,1.82-1.72.62-3.39,1.35-5.05,2.11-1.89.86-3.75,1.8-5.56,2.83-1.65.94-3.25,1.94-4.82,3-1.18.8-2.15,1.79-2.96,2.94-1.8,2.55-2.83,5.43-3.58,8.43-.51,2.04-.86,4.11-1.1,6.2-.21,1.87-.37,3.74-.41,5.61-.08,3.6.07,7.19.63,10.75.28,1.78.64,3.54,1.21,5.25.4,1.22.89,2.41,1.63,3.48.61.89,1.44,1.52,2.31,2.09,1.01.67,2.02,1.35,3.07,1.95.56.32,1.14.61,1.7.93,2.01,1.16,4.08,2.21,6.16,3.23,2.23,1.1,4.49,2.12,6.79,3.08,2.47,1.03,4.97,1.97,7.53,2.76,2.01.62,4.03,1.18,6.1,1.57,2.58.49,5.17.81,7.81.55,2.17-.21,4.19-.84,5.95-2.21,2.77-2.15,4.94-4.8,6.6-7.88,1.34-2.48,2.28-5.12,3.29-7.74.61-1.57,1.22-3.14,2.13-4.57,1.15-1.78,2.68-3.04,4.8-3.49,1.71-.36,3.43-.36,5.16-.15,1.1.13,2.14.48,3.1,1.06,1.76,1.09,2.79,2.75,3.62,4.57.96,2.1,1.7,4.3,2.57,6.44,1.22,3,2.67,5.86,4.8,8.34,1.29,1.49,2.7,2.85,4.34,3.94,1.93,1.28,4.11,1.72,6.38,1.77,3.28.06,6.48-.51,9.64-1.32,2.75-.7,5.44-1.61,8.08-2.64,2.03-.8,4.04-1.64,6.04-2.54,3.57-1.6,7.03-3.39,10.41-5.34,1.38-.8,2.72-1.65,4.05-2.54,1.02-.69,1.88-1.47,2.48-2.54.56-1.02.97-2.1,1.33-3.19.42-1.26.69-2.56.92-3.87.59-3.36.84-6.76.81-10.17-.04-4.51-.45-8.97-1.53-13.36-.62-2.51-1.45-4.93-2.73-7.19-.92-1.62-2.09-3.01-3.61-4.09-.58-.42-1.19-.79-1.79-1.18-2.5-1.63-5.11-3.04-7.81-4.3-1.94-.91-3.91-1.77-5.92-2.54-1.34-.51-2.69-1.02-4.05-1.47-2.12-.71-4.24-1.39-6.39-1.98-.76-.21-1.52-.43-2.28-.62-1.62-.4-3.23-.79-4.85-1.16-1.23-.28-2.47-.54-3.71-.77-1.88-.35-3.76-.7-5.66-.98-1.71-.25-3.42-.5-5.14-.7-1.57-.19-3.14-.36-4.71-.49-1.81-.15-3.62-.33-5.43-.42-.49-.04-.98-.08-1.46-.12-.19,0-.38-.01-.56-.02Z"/>
    <path class="cls-6" d="M63.61,5.54c1.32-.12,2.64-.25,3.96-.35.91-.07,1.82-.19,2.73-.17.62,0,1.25,0,1.87,0v-.02c-.18-.02-.35-.04-.52-.05,1.66-.14,3.32-.3,4.99-.18-.23.11-.48.04-.71.09,1.46-.07,2.91.22,4.37.17,1.81.09,3.62.27,5.43.42,1.57.13,3.14.3,4.71.49,1.72.2,3.43.45,5.14.7,1.9.28,3.78.63,5.66.98,1.24.23,2.48.49,3.71.77,1.62.37,3.24.76,4.85,1.16.76.19,1.52.41,2.28.62,2.15.59,4.28,1.28,6.39,1.98,1.36.45,2.71.96,4.05,1.47,2.01.77,3.98,1.62,5.92,2.54,2.69,1.27,5.31,2.68,7.81,4.3.6.39,1.21.77,1.79,1.18,1.52,1.08,2.69,2.47,3.61,4.09,1.28,2.26,2.12,4.68,2.73,7.19,1.08,4.39,1.49,8.86,1.53,13.36.03,3.41-.22,6.81-.81,10.17-.23,1.3-.51,2.6-.92,3.87-.36,1.1-.77,2.18-1.33,3.19-.6,1.07-1.46,1.85-2.48,2.54-1.32.89-2.67,1.74-4.05,2.54-3.38,1.95-6.85,3.74-10.41,5.34-1.99.89-4,1.74-6.04,2.54-2.64,1.04-5.33,1.94-8.08,2.64-3.16.81-6.36,1.39-9.64,1.32-2.28-.04-4.45-.49-6.38-1.77-1.64-1.09-3.05-2.45-4.34-3.94-2.13-2.47-3.58-5.34-4.8-8.34-.87-2.14-1.61-4.33-2.57-6.44-.83-1.82-1.86-3.49-3.62-4.57-.95-.59-1.99-.93-3.1-1.06-1.72-.21-3.45-.21-5.16.15-2.12.45-3.66,1.71-4.8,3.49-.92,1.42-1.53,3-2.13,4.57-1.01,2.62-1.95,5.26-3.29,7.74-1.66,3.08-3.83,5.72-6.6,7.88-1.76,1.37-3.77,2-5.95,2.21-2.63.26-5.22-.06-7.81-.55-2.07-.39-4.09-.95-6.1-1.57-2.56-.79-5.06-1.74-7.53-2.76-2.29-.95-4.56-1.98-6.79-3.08-2.08-1.02-4.15-2.07-6.16-3.23-.56-.32-1.14-.62-1.7-.93-1.05-.6-2.06-1.28-3.07-1.95-.88-.58-1.71-1.2-2.31-2.09-.73-1.08-1.23-2.26-1.63-3.48-.56-1.71-.93-3.48-1.21-5.25-.56-3.56-.71-7.15-.63-10.75.04-1.88.2-3.75.41-5.61.23-2.09.59-4.16,1.1-6.2.75-2.99,1.78-5.87,3.58-8.43.81-1.16,1.78-2.14,2.96-2.94,1.57-1.07,3.17-2.07,4.82-3,1.81-1.03,3.67-1.97,5.56-2.83,1.66-.76,3.33-1.49,5.05-2.11,1.68-.61,3.34-1.26,5.03-1.82,1.59-.53,3.21-.98,4.82-1.45,1.4-.41,2.81-.78,4.23-1.13,1.71-.42,3.43-.82,5.16-1.15,1.42-.28,2.84-.58,4.27-.85,1.01-.19,2.02-.34,3.04-.49,1.62-.24,3.24-.48,4.87-.7,1.1-.15,2.21-.25,3.32-.37.42,0,.85,0,1.36,0-.22-.03-.35-.06-.48-.08ZM10.24,63.43c.04.16.18.24.29.32,1.2.78,2.39,1.57,3.62,2.32,2.12,1.3,4.31,2.47,6.53,3.58,1.81.91,3.63,1.79,5.48,2.61,1.37.61,2.75,1.18,4.14,1.74,1.08.43,2.17.85,3.27,1.23,1.48.51,2.97.97,4.47,1.4,1.33.38,2.67.72,4.02.98,1.31.25,2.63.46,3.96.58,1.24.11,2.47.1,3.71-.09.9-.14,1.79-.32,2.62-.69,1.16-.51,2.1-1.34,3.03-2.17,1.68-1.51,3.05-3.26,4.2-5.19,1.4-2.36,2.34-4.92,3.3-7.47.7-1.87,1.41-3.74,2.44-5.46.69-1.15,1.52-2.19,2.58-3.03,1.76-1.4,3.83-1.97,6.02-2.11,2.03-.12,4.04-.01,5.99.69,1.31.47,2.45,1.17,3.42,2.15,1,1.01,1.76,2.2,2.4,3.46.72,1.42,1.29,2.9,1.84,4.4.55,1.51,1.2,2.97,1.82,4.45.6,1.43,1.33,2.78,2.18,4.07,1.15,1.74,2.52,3.28,4.12,4.62.75.62,1.51,1.23,2.43,1.61.89.36,1.82.58,2.77.72,1.05.16,2.1.15,3.15.06,1.37-.12,2.73-.28,4.08-.53.85-.16,1.69-.32,2.52-.53,1.17-.29,2.32-.63,3.47-.99,1.73-.55,3.46-1.12,5.14-1.82,1.38-.57,2.79-1.09,4.16-1.69,2.22-.99,4.43-2.02,6.59-3.15,1.71-.89,3.42-1.76,5.08-2.74,1.38-.81,2.76-1.62,4.09-2.52.59-.4,1.17-.83,1.55-1.46.45-.74.82-1.52,1.1-2.35.22-.64.48-1.27.59-1.95.02-.1.02-.2.05-.3.2-.64.3-1.31.41-1.97.06-.39.13-.78.21-1.16.18-.95.22-1.92.39-2.88.1-.58.05-1.18.13-1.78.13-.92.04-1.86.17-2.79.11-.83-.12-1.66-.12-2.49,0-1.01.02-2.02-.1-3.04-.13-1.06-.17-2.14-.33-3.21-.1-.67-.2-1.34-.29-2.01-.11-.83-.29-1.63-.48-2.44-.16-.7-.27-1.41-.49-2.09-.28-.84-.49-1.71-.84-2.53-.35-.82-.65-1.67-1.09-2.45-.47-.86-.96-1.71-1.64-2.42-.47-.49-.95-.96-1.49-1.37-.59-.45-1.19-.89-1.81-1.26-1.04-.62-2.07-1.29-3.14-1.86-.83-.45-1.64-.91-2.49-1.32-.47-.23-.97-.42-1.42-.68-.68-.39-1.39-.71-2.11-1.02-.59-.25-1.2-.48-1.78-.75-1.01-.46-2.05-.84-3.07-1.24-1.02-.4-2.04-.79-3.09-1.12-.9-.29-1.8-.56-2.69-.86-.58-.19-1.15-.38-1.74-.55-.57-.17-1.14-.36-1.72-.49-.47-.1-.91-.28-1.38-.37-.51-.09-1.01-.27-1.52-.4-.49-.12-.98-.21-1.46-.35-.58-.16-1.15-.32-1.74-.42-.28-.05-.55-.12-.83-.18-.57-.13-1.13-.3-1.71-.39-.62-.1-1.23-.23-1.84-.36-.86-.19-1.73-.34-2.59-.53-.57-.12-1.16-.22-1.74-.3-.92-.13-1.84-.33-2.76-.45-.74-.1-1.49-.21-2.23-.31-.76-.11-1.51-.21-2.27-.29-.86-.1-1.72-.22-2.57-.3-1.01-.1-2.02-.18-3.03-.31-.65-.09-1.31-.01-1.97-.14-.58-.12-1.18-.06-1.78-.14-1.05-.14-2.12-.08-3.19-.14-1.61-.09-3.24-.14-4.86.07-.94.12-1.89-.02-2.83.15-.64.12-1.31.02-1.97.15-.63.12-1.28.05-1.93.14-.95.13-1.91.19-2.86.31-.84.11-1.69.21-2.54.29-.63.06-1.25.24-1.88.2-.06,0-.13,0-.19.02-.53.19-1.09.18-1.63.26-.45.06-.91.14-1.35.21-.37.06-.75.03-1.1.14-.66.21-1.35.24-2.02.39-.71.16-1.44.19-2.14.36-.28.07-.56.07-.83.15-.63.19-1.29.28-1.94.41-.55.11-1.1.25-1.65.36-.54.11-1.09.26-1.63.39-.51.12-1.03.22-1.54.35-.65.17-1.28.4-1.94.54-.66.14-1.3.34-1.95.52-1.05.28-2.07.63-3.12.9-.74.19-1.45.52-2.2.69-.8.17-1.5.58-2.28.8-.65.19-1.25.52-1.89.75-1.27.46-2.52.97-3.76,1.51-1.09.48-2.16,1.01-3.23,1.54-1.6.78-3.16,1.64-4.72,2.49-.85.46-1.64,1.01-2.44,1.54-.47.31-.92.66-1.38.98-.93.64-1.62,1.49-2.23,2.39-.51.76-.94,1.59-1.33,2.43-.31.66-.56,1.35-.81,2.03-.22.62-.38,1.26-.56,1.89-.17.62-.39,1.24-.49,1.88-.1.63-.22,1.26-.36,1.88-.17.72-.24,1.45-.38,2.17-.14.78-.25,1.59-.29,2.38-.05.83-.18,1.65-.19,2.49,0,1.33-.03,2.66,0,3.98.02,1.07-.06,2.13.11,3.21.11.73.14,1.48.17,2.22.03.64.18,1.25.22,1.88.02.32.07.66.13.99.14.7.28,1.39.43,2.08.06.3.15.59.23.88.12.42.28.84.35,1.27.09.59.26,1.15.56,1.67.12.21.29.41.36.63.18.57.54,1,.93,1.43Z"/>
    <path class="cls-5" d="M80.31,5.02c-1.46.05-2.91-.23-4.37-.17.23-.05.48.02.71-.09.55.04,1.09.02,1.63.12.18.21.37.11.56.02.49.04.98.08,1.46.12Z"/>
    <path class="cls-5" d="M71.66,4.94c.17.02.35.04.52.05v.02c-.62,0-1.25,0-1.87,0,.45-.03.9-.05,1.35-.08Z"/>
    <path class="cls-5" d="M63.61,5.54c.13.02.26.04.48.08-.51,0-.94,0-1.36,0,.3-.03.59-.05.88-.08Z"/>
    <path class="cls-6" d="M78.85,4.9c-.19.09-.38.19-.56-.02.19,0,.38.01.56.02Z"/>
    <path class="cls-5" d="M10.24,63.43c-.38-.43-.75-.86-.93-1.43-.07-.23-.24-.42-.36-.63-.3-.52-.46-1.08-.56-1.67-.07-.43-.23-.85-.35-1.27-.08-.29-.17-.59-.23-.88-.15-.69-.3-1.39-.43-2.08-.06-.33-.11-.67-.13-.99-.04-.63-.19-1.25-.22-1.88-.03-.74-.06-1.5-.17-2.22-.17-1.07-.09-2.14-.11-3.21-.03-1.33,0-2.66,0-3.98,0-.83.14-1.66.19-2.49.05-.79.15-1.6.29-2.38.13-.72.21-1.45.38-2.17.14-.62.26-1.25.36-1.88.1-.64.32-1.25.49-1.88.18-.63.33-1.27.56-1.89.25-.68.5-1.37.81-2.03.39-.84.82-1.67,1.33-2.43.61-.9,1.31-1.76,2.23-2.39.46-.32.91-.67,1.38-.98.8-.53,1.59-1.08,2.44-1.54,1.56-.85,3.12-1.71,4.72-2.49,1.07-.52,2.14-1.06,3.23-1.54,1.24-.54,2.49-1.05,3.76-1.51.64-.23,1.24-.57,1.89-.75.78-.23,1.48-.63,2.28-.8.75-.16,1.45-.5,2.2-.69,1.05-.27,2.08-.62,3.12-.9.65-.17,1.29-.38,1.95-.52.65-.14,1.29-.37,1.94-.54.51-.13,1.03-.22,1.54-.35.54-.13,1.09-.28,1.63-.39.55-.11,1.1-.25,1.65-.36.65-.13,1.3-.21,1.94-.41.27-.08.55-.09.83-.15.7-.17,1.44-.2,2.14-.36.67-.15,1.36-.18,2.02-.39.35-.11.73-.08,1.1-.14.45-.07.9-.15,1.35-.21.54-.08,1.11-.06,1.63-.26.06-.02.12-.02.19-.02.64.04,1.26-.14,1.88-.2.85-.08,1.69-.19,2.54-.29.95-.12,1.91-.18,2.86-.31.65-.09,1.3-.02,1.93-.14.66-.13,1.32-.03,1.97-.15.94-.18,1.9-.03,2.83-.15,1.62-.21,3.25-.17,4.86-.07,1.06.06,2.14,0,3.19.14.6.08,1.2.02,1.78.14.66.13,1.32.06,1.97.14,1.01.13,2.02.21,3.03.31.86.08,1.72.2,2.57.3.76.09,1.52.19,2.27.29.74.1,1.49.21,2.23.31.92.12,1.84.32,2.76.45.58.08,1.17.18,1.74.3.86.18,1.73.34,2.59.53.61.13,1.22.26,1.84.36.58.09,1.14.26,1.71.39.27.06.55.14.83.18.59.1,1.16.26,1.74.42.48.14.98.22,1.46.35.51.13,1,.31,1.52.4.47.08.92.26,1.38.37.58.13,1.15.32,1.72.49.58.18,1.16.36,1.74.55.89.3,1.8.57,2.69.86,1.05.34,2.07.72,3.09,1.12,1.03.4,2.07.78,3.07,1.24.58.27,1.19.5,1.78.75.72.31,1.43.62,2.11,1.02.45.26.95.45,1.42.68.85.41,1.67.87,2.49,1.32,1.07.58,2.1,1.24,3.14,1.86.62.37,1.22.82,1.81,1.26.54.42,1.02.89,1.49,1.37.68.71,1.17,1.56,1.64,2.42.43.78.74,1.63,1.09,2.45.35.82.56,1.69.84,2.53.22.68.33,1.39.49,2.09.18.81.37,1.61.48,2.44.09.67.19,1.34.29,2.01.16,1.07.19,2.14.33,3.21.13,1.02.09,2.03.1,3.04,0,.84.23,1.66.12,2.49-.12.93-.04,1.87-.17,2.79-.08.6-.03,1.19-.13,1.78-.17.95-.21,1.93-.39,2.88-.07.38-.14.78-.21,1.16-.1.66-.2,1.33-.41,1.97-.03.09-.03.2-.05.3-.61.15-1.18.39-1.75.65-.18.08-.35.19-.57.13-1.02-.29-2.04-.57-3.08-.78.11-.03.1-.05.02-.12-.5-.46-.97-.96-1.49-1.4-.65-.55-1.28-1.14-1.93-1.69-.15-.13-.32-.29-.56-.18-.04-.21-.2-.15-.33-.15-1.35-.01-2.7-.07-4.05-.13-.21-.01-.36-.07-.46-.25-.08-.14-.19-.26-.28-.4-1.32-1.91-2.72-3.77-3.97-5.73-.45-.72-.94-1.41-1.73-1.83-.87-.47-1.7-.99-2.55-1.49-.17-.1-.31-.08-.49.02-.96.57-1.92,1.12-2.88,1.68-.31.19-.62.22-.97.11-1.74-.52-3.47-1.02-5.21-1.53-.21-.06-.41-.09-.62.02-.66.35-1.34.67-2,1.04-.49.27-1.04.44-1.44.85-.85-.38-1.71-.75-2.55-1.16-.38-.18-.82-.28-1.09-.68-.74-1.12-1.45-2.26-2.11-3.44,1.62.01,3.24.14,4.86.22,1.3.07,2.6.14,3.89.14,3.52.01,7.04.07,10.56-.03,1.66-.05,3.32-.15,4.98-.18.82-.02,1.64-.1,2.46-.17,1.24-.11,2.48-.21,3.71-.42.74-.13,1.48-.23,2.19-.48.36-.13.5-.42.38-.74-.15-.38-.35-.72-.68-.97-.54-.41-1.13-.74-1.77-.97-1.78-.64-3.64-.86-5.51-.9-2.53-.06-5.06.09-7.59-.07-.91-.06-1.81-.22-2.69-.43-2.22-.52-4.35-1.33-6.51-2.02-1.3-.41-2.61-.76-3.93-1.08-1.59-.39-3.21-.25-4.81-.13-1.34.1-2.69.18-4.03.28-.68.05-1.36.13-2.04.21-.66.07-1.31.16-1.96.24-.41-.38-.65-.88-.96-1.33-.69-1.01-1.47-1.92-2.51-2.58-1.12-.71-2.23-1.42-3.36-2.11-.58-.35-1.13-.76-1.76-1.05-.12.01-.21.09-.29.16-.89.73-1.81,1.42-2.88,1.88-.32.14-.52.38-.67.68-.17.36-.31.74-.52,1.08-.13.22-.23.27-.39.01-.89-1.46-1.91-2.84-2.92-4.22-.47-.64-.95-1.28-1.43-1.92.11-.12.26-.07.39-.07.9.04,1.8-.06,2.7-.1,1.63-.07,3.26-.15,4.89-.27,1.02-.07,2.04.13,3.06.2,1.34.09,2.69.21,4.03.3,1.27.09,2.55.09,3.82.18.75.05,1.5,0,2.25.08,1.03.11,2.04.03,3.05-.15,1.07-.2,2.1-.55,3.12-.92.52-.19,1.03-.4,1.49-.69.29-.18.72-.38.64-.79-.07-.37-.51-.44-.84-.53-1.59-.45-3.22-.66-4.86-.82-1.49-.15-2.99-.22-4.48-.31-1.51-.09-3.02-.09-4.53-.14-2.11-.07-4.23-.06-6.35-.09-.71-.01-1.42-.03-2.14-.05-1.5-.05-2.99-.14-4.49-.25-.61-.05-1.21-.14-1.81-.29-.24-.06-.26-.17-.16-.37.13-.25.35-.39.57-.53,1.4-.86,2.89-1.54,4.25-2.46.26-.18.61-.38.59-.68-.02-.29-.42-.37-.7-.47-1.61-.6-3.3-.79-4.99-.87-1.67-.08-3.35-.06-5.03.03-1.37.08-2.74.15-4.11.22-1.42.08-2.85.13-4.27.16-2.19.04-4.38.04-6.56-.21-1.12-.13-2.23-.26-3.33-.47-1.19-.22-2.36-.44-3.59-.39-1.38.05-2.73.29-4.07.56-1.5.3-2.97.66-4.38,1.26-.52.22-.57.43-.13.79.5.41,1.11.63,1.73.79,1.16.29,2.34.45,3.54.55,1.64.13,3.28.24,4.93.28,1.33.03,2.65,0,3.98.05,1.98.07,3.97.07,5.96.23,1.37.11,2.74.2,4.08.48.93.19,1.83.49,2.65,1.01.22.14.35.34.35.58,0,.25-.26.29-.44.34-.84.24-1.68.46-2.54.63-1.09.21-2.19.37-3.24.75-.22.08-.51.16-.53.46-.03.3.25.41.43.57.05.04.11.06.17.09,1.24.64,2.62.78,3.96,1.06.36.07.75,0,1.08.22-.7.59-1.38,1.19-2.09,1.76-.71.58-1.07,1.4-1.54,2.15-1.45,2.28-3.03,4.48-4.52,6.73-.18.27-.33.59-.62.79-.5-.37-.82-.9-1.22-1.35-.71-.79-1.41-1.59-2.17-2.33-.08-.08-.23-.27-.35,0-.05-.19-.14-.21-.32-.13-.61.27-1.22.53-1.83.77-.38.15-.71.37-1,.65-2.16,2.08-4.32,4.17-6.42,6.31-.65.67-.61.66-1.09-.15-.82-1.37-1.34-2.94-2.57-4.05,1.11-.05,2.23.13,3.33-.16.8-.21,1.53-.55,1.9-1.37.13-.3.07-.55-.21-.7-.24-.13-.48-.26-.75-.34-1.57-.43-3.19-.52-4.79-.81-.62-.11-1.22-.24-1.79-.53-.23-.12-.33-.26-.23-.53.26-.73.84-1.14,1.5-1.42,1.44-.61,2.97-.86,4.52-.88,2.56-.04,5.12-.07,7.69-.15,1.35-.04,2.69-.16,4.04-.25.41-.03.84-.09,1.17-.42.23-.23.23-.38-.05-.55-.54-.33-1.16-.46-1.76-.59-1.41-.3-2.84-.55-4.27-.69-1.17-.12-2.34-.22-3.51-.19-1.24.03-2.47.13-3.71.13-.06,0-.13,0-.19,0-1.68.1-3.36.19-5.04.3-.6.04-1.2.07-1.8.09-1.35.04-2.69.14-4.04.09-1.8-.07-3.6-.14-5.4-.16-2.68-.03-5.36-.12-8.03.14-.66.06-1.32.12-1.94.36-.52.21-.6.66-.15,1,.23.17.46.33.73.45.69.28,1.39.42,2.14.46,1.31.06,2.61.2,3.92.28,1.02.07,2,.26,2.93.7.44.21.88.44,1.07.94.19.51,0,.97-.43.99-.83.04-1.65.01-2.47-.09-1.14-.14-2.29-.24-3.43-.2-.67.03-1.3.26-1.85.65-.52.37-.53.81-.03,1.17.19.14.4.26.62.35,1.63.61,3.34.82,5.06.89,1.62.07,3.25-.02,4.87-.12,1.87-.11,3.74.06,5.59.35-.99,1.46-1.94,2.94-2.99,4.36-.19.26-.36.54-.74.64-1.64.43-3.27.92-4.91,1.36-.37.1-.61.3-.83.58-.61.79-1.12,1.66-1.69,2.47-.61.86-1.1,1.78-1.3,2.83-.33,1.76-.7,3.52-1.05,5.28-.25,1.22-.51,2.44-.75,3.66-.05.28-.19.12-.29.07-.53-.3-1.07-.6-1.59-.92-.22-.13-.36-.13-.54.08-.72.85-1.48,1.66-2.18,2.52-.25.3-.62.51-.74.91h0c-.07,0-.13,0-.15.08h0s-.05.07-.08.11c-.14.12-.3.23-.42.36-1.09,1.24-2.17,2.48-3.25,3.73Z"/>
    <path class="cls-3" d="M137.02,58.48c1.04.2,2.06.48,3.08.78.22.06.39-.05.57-.13.57-.26,1.14-.5,1.75-.65-.11.68-.37,1.31-.59,1.95-.27.82-.65,1.6-1.1,2.35-.38.63-.96,1.06-1.55,1.46-1.32.9-2.71,1.71-4.09,2.52-1.66.98-3.37,1.85-5.08,2.74-2.16,1.12-4.37,2.16-6.59,3.15-1.37.61-2.77,1.12-4.16,1.69-1.68.69-3.41,1.27-5.14,1.82-1.15.36-2.31.69-3.47.99-.83.21-1.68.37-2.52.53-1.35.25-2.72.41-4.08.53-1.04.09-2.1.1-3.15-.06-.95-.14-1.88-.36-2.77-.72-.92-.37-1.68-.98-2.43-1.61-1.6-1.33-2.98-2.88-4.12-4.62-.85-1.29-1.59-2.64-2.18-4.07-.62-1.48-1.27-2.95-1.82-4.45-.54-1.5-1.12-2.98-1.84-4.4-.64-1.26-1.4-2.45-2.4-3.46-.97-.97-2.11-1.68-3.42-2.15-1.95-.7-3.96-.81-5.99-.69-2.19.13-4.26.71-6.02,2.11-1.06.84-1.9,1.88-2.58,3.03-1.02,1.72-1.73,3.59-2.44,5.46-.96,2.55-1.9,5.11-3.3,7.47-1.15,1.93-2.52,3.69-4.2,5.19-.93.83-1.87,1.66-3.03,2.17-.84.37-1.72.55-2.62.69-1.23.19-2.47.2-3.71.09-1.33-.11-2.65-.33-3.96-.58-1.35-.26-2.69-.59-4.02-.98-1.5-.43-3-.89-4.47-1.4-1.1-.38-2.19-.8-3.27-1.23-1.39-.56-2.77-1.13-4.14-1.74-1.85-.82-3.67-1.71-5.48-2.61-2.22-1.11-4.41-2.28-6.53-3.58-1.22-.75-2.41-1.54-3.62-2.32-.12-.08-.25-.16-.29-.32,1.08-1.24,2.16-2.49,3.25-3.73.12-.14.28-.24.42-.36.04-.03.09-.05.08-.11,0,0,0,0,0,0,.08.04.12,0,.15-.08h0c.06-.01.12-.02.18-.04.99-.51,1.98-1.01,2.93-1.59.18-.11.3-.12.47,0,1.57,1.04,3.13,2.07,4.7,3.11.68.45,1.34.9,1.88,1.54,1.16,1.36,2.2,2.82,3.37,4.18.32.37.61.77.94,1.19.05-.21-.04-.31-.1-.42-.96-1.93-2-3.81-2.88-5.78-.39-.88-.97-1.54-1.83-2-.91-.48-1.76-1.06-2.64-1.59-.21-.12-.27-.26-.23-.49.42-2.34.83-4.68,1.26-7.02.23-1.26.31-2.56,1.03-3.69.51-.79.98-1.6,1.43-2.43.35-.65.78-1.1,1.53-1.36,1.69-.56,3.32-1.26,5-1.86.36-.13.49-.37.65-.66.65-1.2,1.15-2.49,2.01-3.55.73-.91,1.02-1.91,1.07-3.02.06-.01.11-.05.17,0,.54.46,1.12.86,1.71,1.25.6.39,1.13.88,1.76,1.23,1.23,1.11,1.75,2.68,2.57,4.05.48.81.44.82,1.09.15,2.1-2.15,4.26-4.23,6.42-6.31.29-.28.62-.5,1-.65.62-.24,1.23-.5,1.83-.77.18-.08.28-.06.32.13-.02.27-.18.41-.42.51-.57.24-1.12.49-1.69.73-.17.07-.3.18-.38.34-.4.84-.9,1.62-1.36,2.42-.1.17-.21.31-.37.41-1.26.8-2.29,1.86-3.35,2.88-.18.17-.36.34-.46.59-.23.58-.47,1.16-.7,1.74-.04.1-.12.2,0,.32.12-.06.24-.13.36-.19.53-.28,1.04-.61,1.61-.81,1.04-.36,2.12-.58,3.18-.85.24-.06.52-.33.71-.12.15.17-.01.5-.02.76-.01.39-.13.77-.08,1.23.24-.18.46-.28.6-.45.46-.57.97-.72,1.59-.28.16.12.29.06.42-.08.33-.36.69-.69,1.01-1.06.16-.18.32-.23.56-.22.42.01.85.1,1.27.02.26-.05.3.1.24.31-.08.3-.16.6-.25.9-.05.16,0,.22.15.17.6-.19,1.17-.45,1.72-.74.08-.04.13-.15.18-.23.39-.76.58-1.54.09-2.34-.03-.05-.05-.11-.07-.17-.27-.71-.54-1.43-.81-2.14.29-.2.43-.51.62-.79,1.49-2.25,3.07-4.44,4.52-6.73.47-.75.83-1.57,1.54-2.15.71-.58,1.39-1.18,2.09-1.76.1-.31.35-.53.52-.8.48-.76.97-1.5,1.84-1.9.39-.18.58-.06.79.19.55.66,1.11,1.31,1.62,2,.26.35.56.41.94.36,1.07-.16,2.15-.25,3.23-.3.46-.02.78.07.92.53.48.64.96,1.28,1.43,1.92,1.01,1.38,2.03,2.76,2.92,4.22.16.26.26.21.39-.01.21-.34.35-.72.52-1.08.14-.31.35-.54.67-.68,1.07-.46,1.98-1.15,2.88-1.88.09-.07.17-.15.29-.16,0,.54,0,1.08-.02,1.61-.01.22.04.34.23.45,1.29.79,2.57,1.6,3.86,2.4.26.16.47.36.65.61.73,1,1.46,2,2.19,3,.17.24.38.42.65.55,1.44.67,2.87,1.36,4.31,2.03.42.2.77.44.99.86.26.49.57.94.85,1.41,1.47,2.43,2.95,4.86,4.42,7.28.1.17.23.27.44.3,2.07.29,4.07.82,5.89,1.88.31.18.62.37,1.06.45-.97-1.01-1.75-2.08-2.7-3,.41-.41.96-.58,1.44-.85.66-.36,1.33-.69,2-1.04.21-.11.41-.08.62-.02,1.74.51,3.48,1.01,5.21,1.53.35.1.65.07.97-.11.96-.57,1.92-1.12,2.88-1.68.17-.1.31-.12.49-.02.85.5,1.69,1.02,2.55,1.49.78.43,1.27,1.12,1.73,1.83,1.25,1.96,2.65,3.82,3.97,5.73.09.13.2.26.28.4.1.19.25.24.46.25,1.35.07,2.7.12,4.05.13.12,0,.29-.05.33.15-.28.08-.55.17-.83.25-.35.11-.37.16-.12.44.34.37.65.76.74,1.28.05.3,0,.4-.31.31-.53-.15-1.07-.26-1.6-.41-.18-.05-.28-.05-.29.18-.06.97-.51,1.82-.88,2.69-.04.09-.15.17-.05.31.33-.18.53-.49.77-.76.19-.21.36-.23.59-.08.41.26.84.51,1.24.78.21.14.37.15.57-.02.17-.14.36-.3.61-.13.25.17.51.32.76.49.52.36.53.37.6-.26.03-.29.13-.31.36-.2.58.29,1.16.59,1.76.84.56.23.99.57,1.27,1.11.07.13.14.29.34.31-.12-.82-.34-1.57-.93-2.17-.55-.55-1.13-1.07-1.76-1.51-.08-.05-.21-.1-.17-.22.05-.12.18-.06.26-.04.36.05.69.22,1.06.22ZM88.67,42.25c-.17-.72-.34-1.44-.5-2.16-.19-.84-.43-1.67-.86-2.43-.33-.58-.62-1.17-.92-1.76-.3-.59-.3-.6-.89-.29-.21.11-.36.08-.47-.12-.08-.16-.14-.32-.2-.48-.19-.52-.37-1.04-.56-1.55-.04-.11-.04-.29-.2-.28-.13,0-.19.15-.26.25-.32.43-.33.44-.77.14-.83-.58-1.71-1.08-2.51-1.72-.06-.05-.13-.15-.22-.06-.07.07-.02.17.04.24.17.22.2.48.27.73.23.85.53,1.63,1.33,2.17.94.64,1.79,1.41,2.68,2.11.32.25.56.57.76.92,1.08,1.89,2.17,3.77,3.25,5.65.11.24.18.52.53.67-.2-.71-.28-1.39-.52-2.02ZM84.67,41.58c-.41-1.05-.93-2.04-1.46-3.03-.14-.27-.29-.55-.54-.71-.97-.6-1.65-1.45-2.24-2.4-.83-1.34-1.73-2.64-2.61-3.95-1.3-1.95-2.73-3.8-4.09-5.71-.14-.19-.27-.33-.55-.28-1.19.21-2.39.25-3.59.24-.19,0-.33-.06-.45-.21-.51-.63-1.03-1.26-1.54-1.89q-.51-.63-1.18-.25c-.07.04-.13.08-.2.11-.27.11-.28.25-.11.48.96,1.34,1.64,2.81,2.05,4.4.32,1.24.38,2.52.51,3.79,0,.09-.05.23.06.27.15.05.17-.11.22-.2.27-.45.53-.91.78-1.37.4-.74.4-.75,1.21-.59.95.19,1.53.86,1.84,1.69.46,1.2.57,2.51,1.06,3.71.04.11.02.29.18.29.13,0,.12-.17.16-.27.27-.7.53-1.4.8-2.1.06-.17.13-.28.35-.21,1.66.52,1.87.65,3.05,1.91.15.16.31.33.47.49,1,1.03,2.1,1.99,2.98,3.12,1.54,1.99,2.73,4.19,3.39,6.65.19.71.44,1.4.66,2.09.07-.14.07-.27.05-.4-.18-1.16-.37-2.32-.56-3.48-.04-.24-.03-.5-.18-.71-.11-.51-.28-1-.52-1.47ZM80.69,48.25s0,.02.01.03c0,0,.01,0,.02,0-.01,0-.02-.02-.04-.02.04-.13-.02-.25-.07-.36-.64-1.29-1.27-2.58-1.92-3.87-.14-.29-.27-.6-.54-.8-1.06-.79-2.13-1.59-3.19-2.38-.13-.1-.24-.12-.41-.04-.64.29-1.29.55-1.93.84-.25.12-.4.07-.57-.15-.36-.45-.75-.87-1.13-1.31-.14-.17-.33-.25-.55-.3-.87-.19-1.73-.4-2.59-.62-.21-.05-.35-.02-.52.1-.63.47-1.27.94-1.9,1.4-1.9,1.39-3.81,2.76-5.36,4.57-.16.18-.3.37-.37.6-.21.64-.42,1.28-.63,1.93-.18.56-.34,1.13-.51,1.71.18.03.23-.08.29-.15.39-.41.77-.82,1.16-1.23.97-1.03,1.9-2.1,3.26-2.65.15-.06.26-.13.38.05.24.37.49.73.74,1.08.36.5.72.99,1.08,1.49.09-.3.09-.57.09-.84,0-.79.03-1.57.55-2.25.15-.19.24-.28.48-.16.65.32,1.34.56,2.08.59.26.01.43.14.58.35.41.57.84,1.12,1.27,1.68.07.1.17.24.29.22.15-.03.08-.21.09-.33.05-.56.1-1.12.16-1.68.02-.16.05-.32.22-.4,1.11-.55,2.21-1.11,3.32-1.67.09-.04.18-.08.29-.03.38.19.8.28,1.22.37.81.18,1.5.52,1.99,1.22.24.34.53.63.81.94.61.69,1.23,1.38,1.85,2.07ZM121.4,67.33s.08-.02.12-.02c-.01-.22-.01-.44-.04-.65-.1-.86-.21-1.71-.27-2.57-.03-.41-.08-.82-.24-1.21-.59-1.47-1.38-2.83-2.08-4.25-.27-.55-.31-.56-.9-.38-1.15.36-2.3.72-3.47,1.05-.29.08-.48.06-.68-.19-.37-.49-.77-.96-1.16-1.43-.37-.44-.7-.92-1.22-1.2-1.37-.73-2.73-1.48-4.1-2.22-.18-.1-.37-.15-.57-.15-1.67-.04-3.33-.09-5-.13-.23,0-.37-.08-.48-.28-.35-.66-.75-1.3-1.06-1.99-.42-.96-1.06-1.64-2.01-2.11-1.46-.73-2.88-1.58-4.31-2.37-.12-.07-.23-.12-.36.02-.8.89-1.61,1.77-2.42,2.65-.46.5-.89,1.02-1.47,1.39-.96.62-1.9,1.26-2.91,1.79-.05.03-.12.05-.07.16.46-.11.92-.21,1.38-.32,1.31-.3,2.65-.53,3.81-1.31.58-.39,1.23-.66,1.79-1.09.17-.13.34-.09.52.02.9.59,1.8,1.18,2.72,1.74.44.26.69.62.86,1.08.51,1.44,1.04,2.87,1.55,4.31.08.21.18.29.4.3.8.02,1.6.07,2.4.08.28,0,.47.11.62.34.43.63.86,1.26,1.3,1.88.14.2.23.41.29.65.21.86.38,1.74.53,2.61.02.12-.02.32.16.34.13.01.16-.17.2-.28.19-.45.41-.89.54-1.36.16-.53.48-1,.35-1.62-.23-1.02-.33-2.07-.45-3.12-.03-.23.03-.29.26-.26.48.06.97.11,1.46.13.51.02.94.15,1.29.56.23.27.51.52.8.74.42.32.65.67.4,1.21-.04.1-.02.22-.04.33-.44,1.86-.27,3.7.17,5.54.02.07.01.17.1.18.13.02.11-.11.13-.18.05-.23.1-.47.15-.7.32-1.4.52-2.84,1.6-3.94.17-.18.29-.23.5-.1.33.2.67.4,1.01.57.21.1.3.24.3.47,0,.4.04.8.06,1.2,0,.07,0,.17.09.19.09.02.13-.07.16-.13.26-.54.54-1.07.74-1.64.09-.26.2-.35.45-.4.73-.17,1.46-.35,2.19-.54.19-.05.3,0,.42.14.36.45.75.88,1.1,1.33.6.75,1.31,1.42,1.54,2.42.09.39.21.77.33,1.15.17.53.34,1.06.51,1.6ZM32.78,72.03c.17,0,.19-.08.23-.14.24-.4.48-.79.71-1.2.28-.5.58-.98,1.09-1.26.56-.31.88-.78,1.06-1.39.26-.85.57-1.68.84-2.53.1-.31.25-.56.53-.75.44-.31.88-.62,1.3-.96.5-.42,1.05-.64,1.72-.64.3,0,.65.04.91-.15.58-.41,1.17-.82,1.52-1.48.17-.32.36-.63.52-.95.09-.18.2-.22.39-.18,1.09.24,2.18.45,3.27.71.3.07.4.03.45-.27.24-1.41.51-2.81.74-4.21.05-.27.16-.45.39-.59,1.78-1.06,3.4-2.34,4.79-3.89.15-.16.28-.21.49-.12.5.2.99.42,1.51.57,1.22.38,1.94,1.32,2.67,2.26.05.07.08.15.11.24.15.39.28.77.43,1.16.05.13.09.28.28.36,0-1.26.22-2.51-.57-3.62-.06-.08-.09-.18-.13-.27-.48-1.06-1.09-2.02-1.93-2.83-.55-.53-1.09-1.07-1.58-1.66-.26-.31-.44-.3-.74-.12-1.24.76-2.49,1.5-3.73,2.25-.17.1-.32.23-.45.39-1.09,1.39-2.25,2.72-3.55,3.92-.15.14-.23.3-.25.52-.09.85-.21,1.69-.32,2.53-.02.17,0,.39-.33.3-.82-.24-1.65-.43-2.46-.67-.19-.05-.28-.03-.4.14-.47.71-.96,1.4-1.45,2.1-.1.14-.2.29-.38.35-.68.2-1.29.54-1.95.79-.25.1-.41.25-.55.48-.63,1.08-1.29,2.12-2.49,2.67-.18.08-.23.25-.28.42-.35,1.19-.69,2.38-.97,3.59-.08.34-.24.59-.53.79-.26.18-.49.38-.74.57-.11.08-.17.18-.18.32-.06.81.04,1.62,0,2.44ZM31.5,55.03c-.14-.89-.21-1.79-.53-2.64-.15-.4-.24-.84-.64-1.11-.36-.24-.69-.52-1.04-.79-.15-.12-.11-.21.04-.27.51-.19,1-.47,1.58-.4.51.07,1.02.11,1.53.17.19.02.31.12.4.29.19.35.4.69.6,1.04.05.09.11.2.22.17.13-.04.06-.17.06-.26,0-.54-.02-1.08,0-1.62,0-.25-.06-.39-.3-.48-.73-.28-1.45-.58-2.18-.88-.12-.05-.27-.04-.34-.21.71-.34,1.45-.56,2.17-.84.1-.04.21-.01.32.05.57.33,1.14.68,1.73.97.41.2.64.49.79.9.13.35.26.7.4,1.05.05.12.06.27.27.3.05-.57.12-1.11.12-1.66,0-.57-.5-.97-.61-1.54.88.27,1.59.64,1.85,1.58.08.28.22.57.5.86-.07-.7-.05-1.3-.04-1.91,0-.23-.11-.43-.27-.6-.3-.36-.67-.64-1.02-.94q-1.14-1.01-2.66-1c-.25,0-.5-.01-.75,0-.76.06-1.49-.1-2.22-.29-.71-.19-1.43-.36-2.15-.53-.25-.06-.5-.11-.74,0-.36.16-.73.28-1.11.35-.95.16-1.62.62-1.91,1.57-.03.09-.1.17-.14.26-.28.57-.68,1.1-.84,1.72-.33,1.33-.42,2.69-.63,4.04-.03.2.03.26.22.14.25-.16.51-.32.77-.46.36-.19.68-.47,1.13-.46,1.14.03,2.23.25,3.22.86.29.18.54.39.75.67.47.63.86,1.32,1.42,1.9ZM48.59,66.84c.22-.03.3-.19.41-.32,1.02-1.15,1.8-2.54,3.18-3.36.18-.11.35-.25.52-.37.11-.08.16-.18.18-.31.08-.59.22-1.19.25-1.78.03-.49.28-.74.68-.93.33-.16.4-.14.49.22.17.65.35,1.31.53,1.96.03.11.04.25.17.27.14.02.16-.14.2-.23.16-.36.3-.71.45-1.07.03-.08.04-.18.15-.19.09,0,.12.07.16.14.39.64.79,1.28,1.18,1.92.12.2.16.42.16.65,0,.75,0,1.5,0,2.25,0,.09-.07.23.06.26.15.04.15-.14.19-.23.13-.31.27-.62.38-.94.21-.6.56-1.16.56-1.82,0-1.16,0-2.33,0-3.49,0-.22-.06-.42-.19-.6-.7-1.02-1.4-2.04-2.1-3.07-.12-.18-.27-.33-.48-.41-.48-.18-.96-.35-1.45-.52-.17-.06-.34-.06-.47.12-.2.27-.43.53-.59.82-.18.31-.43.46-.75.57-.61.2-1.21.41-1.81.61-.17.06-.3.13-.35.34-.14.61-.3,1.21-.46,1.82-.38,1.43-.91,2.84-.76,4.37.04.37-.02.75-.02,1.13,0,.76-.31,1.45-.48,2.19ZM103.09,66.2c.13-.87.17-1.7.13-2.54,0-.17-.03-.35-.12-.51-.41-.76-.83-1.51-1.23-2.28-.12-.23-.27-.32-.53-.31-.94.02-1.88,0-2.82.05-.42.02-.63-.11-.8-.49-.69-1.55-1.26-3.16-2-4.69-.09-.18-.17-.35-.38-.44-.69-.32-1.39-.63-2.07-.98-.23-.12-.39-.08-.58.05-.63.44-1.26.87-1.89,1.3-.14.09-.2.21-.2.37-.02,1.51-.05,3.03-.07,4.54,0,.08-.05.2.08.22.08.01.12-.07.17-.13.03-.05.06-.11.1-.16.6-.8.97-1.8,1.96-2.26.09-.04.16-.16.26-.09.1.07.03.18.01.28-.04.21-.09.41-.13.62-.11.65-.29,1.29-.35,1.98.1-.03.16-.04.21-.08.63-.43,1.29-.75,2.08-.71.17,0,.29.02.34.19.23.7.48,1.4.67,2.11.09.34.23.44.55.47,1.1.09,2.18.27,3.27.46,1.21.22,2.02.84,2.57,1.91.21.4.51.76.76,1.14ZM49.05,46.31c-.08-.26-.21-.35-.3-.46-.44-.51-.91-1-1.33-1.53-.35-.46-.72-.77-1.35-.77-.85,0-1.69-.13-2.52.2-.31.13-.65.17-.98.27-.24.08-.38.01-.54-.19-.68-.9-1.37-1.79-2.06-2.68-.14-.19-.31-.31-.54-.37-.52-.14-1.02-.33-1.54-.47-.32-.09-.56-.25-.77-.5-.45-.54-.92-1.06-1.37-1.6-.14-.17-.21-.19-.36,0-.83,1.18-1.67,2.34-2.51,3.52-.03.05-.08.1-.03.16.02,0,.05.02.07,0,.71-.42,1.42-.83,2.12-1.27.22-.14.3-.16.38.13.11.4.28.77.43,1.16.06.15.19.19.32.22.74.18,1.48.36,2.22.53.33.08.59.23.83.48.79.85,1.61,1.68,2.4,2.54.25.27.47.34.82.21.87-.33,1.73-.67,2.62-.91.82-.22,1.65-.36,2.42.26.46.37.98.67,1.56,1.04ZM112.39,46.64s.07.06.11.09c1.88,1.29,3.75,2.56,5.93,3.34,1.12.41,2.21.79,3.42.65.64-.08,1.21.1,1.75.42.26.15.53.28.8.42.4.21.81.41,1.27.65-.03-.11-.03-.14-.05-.17-.7-.97-1.4-1.95-2.12-2.91-.44-.59-.81-1.24-1.46-1.65-.78-.5-1.57-.97-2.36-1.47-.13-.08-.24-.1-.38-.02-.97.57-1.96,1.12-2.92,1.69-.22.13-.41.16-.64.08-.59-.21-1.17-.43-1.76-.64-.52-.18-1.02-.41-1.59-.48ZM110.8,50.77c.52.41,1.01.81,1.51,1.2.23.18.42.38.54.65.55,1.23,1.13,2.46,1.66,3.7.12.29.27.33.54.28,1.75-.32,3.5-.64,5.24-.96.27-.05.52-.03.77.09.82.4,1.64.8,2.47,1.19.12.06.23.16.4.09-.07-.09-.13-.17-.2-.23-.78-.79-1.57-1.58-2.34-2.38-.21-.23-.43-.31-.72-.27-.62.08-1.24.14-1.86.24-.28.04-.51,0-.74-.16-.36-.24-.75-.45-1.13-.67-.12-.07-.23-.1-.35-.04-.43.18-.87.33-1.27.54-.28.15-.42.09-.55-.18-.36-.7-.74-1.39-1.1-2.09-.09-.18-.21-.28-.41-.34-.66-.19-1.32-.4-1.97-.6-.14-.04-.27-.12-.47-.04ZM57.38,36.9c.09,0,.13,0,.16-.02,1.43-.77,2.86-1.55,4.29-2.32.13-.07.2-.16.23-.31.18-.76.39-1.52.58-2.29.12-.49.32-.94.69-1.31.38-.38.73-.79,1.12-1.17.22-.21.3-.44.29-.73-.02-.63-.02-1.25,0-1.88,0-.31-.09-.32-.32-.18-.62.4-1.24.8-1.87,1.18-.22.14-.32.31-.36.57-.08.55-.08,1.12-.41,1.62-.51.77-.99,1.56-1.5,2.34-.96,1.48-1.91,2.96-2.9,4.48ZM64.28,32.2c-.05.14-.08.21-.09.28-.29,1.26-.59,2.51-.86,3.77-.12.53-.36.97-.7,1.39-.95,1.2-1.88,2.43-2.82,3.64,3.15-1.82,6.19-3.82,9.29-5.75-.14-.12-.25-.07-.36-.05-.91.16-1.84.2-2.76.31-.23.03-.34-.02-.45-.26-.23-.52-.37-1.06-.57-1.59-.21-.56-.33-1.15-.69-1.73Z"/>
    <path class="cls-4" d="M74.15,25.09c-.14-.46-.46-.55-.92-.53-1.08.05-2.16.14-3.23.3-.38.06-.68,0-.94-.36-.51-.69-1.07-1.34-1.62-2-.21-.25-.4-.37-.79-.19-.87.41-1.36,1.14-1.84,1.9-.17.27-.42.49-.52.8-.33-.22-.72-.14-1.08-.22-1.34-.28-2.72-.42-3.96-1.06-.06-.03-.12-.05-.17-.09-.18-.16-.46-.28-.43-.57.03-.3.31-.38.53-.46,1.05-.38,2.15-.54,3.24-.75.86-.17,1.7-.39,2.54-.63.18-.05.44-.09.44-.34,0-.24-.13-.44-.35-.58-.81-.52-1.71-.81-2.65-1.01-1.35-.28-2.71-.37-4.08-.48-1.98-.16-3.97-.15-5.96-.23-1.33-.05-2.65-.02-3.98-.05-1.65-.04-3.29-.15-4.93-.28-1.2-.1-2.38-.26-3.54-.55-.62-.15-1.22-.38-1.73-.79-.44-.36-.39-.57.13-.79,1.41-.6,2.89-.97,4.38-1.26,1.34-.27,2.69-.51,4.07-.56,1.23-.05,2.4.17,3.59.39,1.1.21,2.21.34,3.33.47,2.18.24,4.37.25,6.56.21,1.42-.03,2.85-.08,4.27-.16,1.37-.07,2.74-.14,4.11-.22,1.68-.1,3.36-.11,5.03-.03,1.69.08,3.38.27,4.99.87.28.1.67.18.7.47.02.3-.33.5-.59.68-1.36.93-2.85,1.61-4.25,2.46-.22.14-.44.28-.57.53-.11.21-.08.31.16.37.59.15,1.2.24,1.81.29,1.49.12,2.99.21,4.49.25.71.02,1.42.04,2.14.05,2.12.03,4.23.02,6.35.09,1.51.05,3.02.05,4.53.14,1.49.09,2.99.16,4.48.31,1.63.17,3.27.37,4.86.82.33.09.77.16.84.53.08.41-.35.61-.64.79-.46.29-.97.5-1.49.69-1.02.37-2.05.72-3.12.92-1.01.19-2.02.27-3.05.15-.74-.08-1.5-.03-2.25-.08-1.27-.09-2.55-.08-3.82-.18-1.34-.1-2.68-.21-4.03-.3-1.02-.07-2.04-.28-3.06-.2-1.63.12-3.26.21-4.89.27-.9.04-1.8.13-2.7.1-.13,0-.28-.05-.39.07Z"/>
    <path class="cls-4" d="M91.82,34.49c.65-.08,1.31-.17,1.96-.24.68-.08,1.36-.15,2.04-.21,1.34-.1,2.69-.19,4.03-.28,1.6-.11,3.22-.26,4.81.13,1.32.32,2.64.67,3.93,1.08,2.17.69,4.3,1.5,6.51,2.02.88.21,1.78.37,2.69.43,2.53.16,5.06.02,7.59.07,1.88.04,3.73.26,5.51.9.64.23,1.23.56,1.77.97.33.25.53.59.68.97.12.32-.02.61-.38.74-.71.25-1.45.35-2.19.48-1.23.21-2.47.31-3.71.42-.82.07-1.64.16-2.46.17-1.66.03-3.32.13-4.98.18-3.52.1-7.04.05-10.56.03-1.3,0-2.6-.07-3.89-.14-1.62-.09-3.24-.21-4.86-.22-.04-.06-.09-.12-.13-.18-.97-1.56-1.94-3.12-2.9-4.68-.14-.22-.31-.34-.55-.42-1.38-.48-2.76-.97-4.14-1.45-.39-.14-.67-.38-.79-.78Z"/>
    <path class="cls-4" d="M38.55,36.15c-.63-.35-1.16-.84-1.76-1.23-.59-.39-1.18-.79-1.71-1.25-.06-.05-.11-.02-.17,0-.1.04-.14.13-.2.22-.32.48-.64.95-.96,1.43-1.85-.29-3.72-.46-5.59-.35-1.62.09-3.25.19-4.87.12-1.72-.07-3.43-.27-5.06-.89-.23-.09-.43-.21-.62-.35-.5-.37-.49-.8.03-1.17.55-.39,1.18-.62,1.85-.65,1.15-.05,2.29.06,3.43.2.82.1,1.65.13,2.47.09.44-.02.63-.48.43-.99-.19-.5-.63-.74-1.07-.94-.92-.44-1.91-.63-2.93-.7-1.31-.08-2.61-.22-3.92-.28-.75-.03-1.45-.18-2.14-.46-.27-.11-.51-.27-.73-.45-.45-.34-.37-.8.15-1,.62-.25,1.29-.3,1.94-.36,2.67-.26,5.35-.17,8.03-.14,1.8.02,3.6.1,5.4.16,1.35.05,2.69-.05,4.04-.09.6-.02,1.2-.05,1.8-.09,1.68-.1,3.36-.2,5.04-.3.06,0,.13,0,.19,0,1.24,0,2.47-.1,3.71-.13,1.17-.03,2.34.07,3.51.19,1.44.15,2.86.39,4.27.69.61.13,1.22.26,1.76.59.29.17.28.32.05.55-.33.33-.76.39-1.17.42-1.34.09-2.69.21-4.04.25-2.56.08-5.12.11-7.69.15-1.55.03-3.08.28-4.52.88-.67.28-1.24.69-1.5,1.42-.1.27,0,.41.23.53.56.29,1.17.42,1.79.53,1.59.29,3.22.38,4.79.81.27.07.51.2.75.34.28.16.35.4.21.7-.37.83-1.1,1.16-1.9,1.37-1.09.29-2.22.1-3.33.16Z"/>
    <path class="cls-2" d="M55.53,36.45c.27.71.54,1.43.81,2.14.02.06.04.12.07.17.48.8.29,1.57-.09,2.34-.04.09-.1.19-.18.23-.55.3-1.12.56-1.72.74-.16.05-.2-.02-.15-.17.09-.3.16-.6.25-.9.06-.21.02-.36-.24-.31-.43.07-.85,0-1.27-.02-.24,0-.4.05-.56.22-.33.36-.68.7-1.01,1.06-.13.14-.26.19-.42.08-.63-.44-1.13-.3-1.59.28-.13.17-.35.27-.6.45-.05-.46.07-.84.08-1.23,0-.26.17-.59.02-.76-.19-.21-.48.06-.71.12-1.06.27-2.14.49-3.18.85-.57.2-1.08.52-1.61.81-.12.06-.24.13-.36.19-.12-.13-.03-.22,0-.32.23-.58.47-1.16.7-1.74.1-.25.28-.41.46-.59,1.06-1.03,2.09-2.08,3.35-2.88.16-.1.27-.25.37-.41.46-.8.96-1.58,1.36-2.42.08-.17.21-.27.38-.34.56-.24,1.12-.5,1.69-.73.24-.1.4-.24.42-.51.12-.26.26-.07.35,0,.76.74,1.46,1.54,2.17,2.33.41.45.72.98,1.22,1.35Z"/>
    <path class="cls-2" d="M33.75,35.31c.32-.48.64-.95.96-1.43.06-.08.1-.17.2-.22-.04,1.12-.33,2.11-1.07,3.02-.85,1.06-1.36,2.35-2.01,3.55-.16.29-.29.53-.65.66-1.67.6-3.31,1.3-5,1.86-.75.25-1.18.71-1.53,1.36-.45.82-.92,1.64-1.43,2.43-.73,1.13-.8,2.43-1.03,3.69-.43,2.34-.84,4.68-1.26,7.02-.04.23.02.36.23.49.88.52,1.73,1.11,2.64,1.59.86.46,1.44,1.12,1.83,2,.88,1.97,1.92,3.85,2.88,5.78.05.11.14.21.1.42-.33-.42-.63-.82-.94-1.19-1.16-1.36-2.21-2.81-3.37-4.18-.54-.63-1.2-1.09-1.88-1.54-1.57-1.04-3.13-2.07-4.7-3.11-.17-.11-.29-.1-.47,0-.94.59-1.94,1.08-2.93,1.59-.05.03-.12.03-.18.04.12-.4.5-.61.74-.91.7-.86,1.46-1.68,2.18-2.52.18-.21.32-.21.54-.08.52.32,1.06.62,1.59.92.1.05.23.21.29-.07.24-1.22.5-2.44.75-3.66.36-1.76.72-3.51,1.05-5.28.2-1.06.69-1.97,1.3-2.83.58-.82,1.08-1.68,1.69-2.47.22-.29.46-.49.83-.58,1.64-.44,3.27-.93,4.91-1.36.38-.1.55-.38.74-.64,1.05-1.42,2-2.9,2.99-4.36Z"/>
    <path class="cls-2" d="M91.82,34.49c.12.4.4.65.79.78,1.38.49,2.76.97,4.14,1.45.23.08.41.2.55.42.96,1.56,1.93,3.12,2.9,4.68.04.06.09.12.13.18.66,1.17,1.37,2.31,2.11,3.44.27.4.7.5,1.09.68.84.41,1.7.77,2.55,1.16.95.92,1.73,1.99,2.7,3-.44-.08-.75-.27-1.06-.45-1.83-1.06-3.82-1.59-5.89-1.88-.21-.03-.33-.13-.44-.3-1.47-2.43-2.95-4.86-4.42-7.28-.29-.47-.6-.93-.85-1.41-.23-.43-.58-.67-.99-.86-1.44-.67-2.87-1.36-4.31-2.03-.27-.13-.47-.31-.65-.55-.73-1-1.46-2-2.19-3-.18-.25-.39-.45-.65-.61-1.29-.8-2.57-1.61-3.86-2.4-.19-.12-.24-.24-.23-.45.03-.54.02-1.08.02-1.61.62.29,1.17.7,1.76,1.05,1.13.69,2.24,1.4,3.36,2.11,1.04.66,1.82,1.57,2.51,2.58.31.45.55.95.96,1.33Z"/>
    <path class="cls-2" d="M137.02,58.48c-.37,0-.7-.17-1.06-.22-.09-.01-.22-.08-.26.04-.04.11.09.17.17.22.64.45,1.22.96,1.76,1.51.59.6.81,1.35.93,2.17-.2-.02-.27-.18-.34-.31-.28-.53-.71-.88-1.27-1.11-.6-.24-1.18-.55-1.76-.84-.23-.11-.33-.09-.36.2-.06.63-.08.62-.6.26-.25-.17-.51-.32-.76-.49-.25-.17-.44-.01-.61.13-.2.17-.36.15-.57.02-.41-.27-.83-.51-1.24-.78-.23-.14-.4-.13-.59.08-.24.27-.43.58-.77.76-.1-.14.01-.22.05-.31.37-.87.83-1.72.88-2.69.01-.23.11-.23.29-.18.53.15,1.07.26,1.6.41.32.09.36-.02.31-.31-.09-.52-.39-.91-.74-1.28-.25-.27-.24-.33.12-.44.27-.09.55-.17.83-.25.24-.12.41.05.56.18.65.56,1.28,1.14,1.93,1.69.52.44.99.94,1.49,1.4.09.08.09.1-.02.12Z"/>
    <path class="cls-2" d="M14.14,59.15c-.03.07-.07.12-.15.08.03-.07.08-.09.15-.08Z"/>
    <path class="cls-2" d="M13.99,59.23c.02.07-.04.09-.08.11.03-.04.05-.07.08-.11Z"/>
    <path class="cls-2" d="M121.4,67.33c-.17-.53-.35-1.06-.51-1.6-.12-.38-.24-.76-.33-1.15-.22-.99-.94-1.67-1.54-2.42-.36-.45-.74-.88-1.1-1.33-.12-.15-.24-.19-.42-.14-.73.19-1.46.37-2.19.54-.24.05-.35.14-.45.4-.2.56-.49,1.09-.74,1.64-.03.06-.07.15-.16.13-.09-.02-.08-.11-.09-.19-.02-.4-.05-.8-.06-1.2,0-.23-.09-.36-.3-.47-.35-.17-.69-.36-1.01-.57-.21-.13-.33-.08-.5.1-1.07,1.1-1.28,2.54-1.6,3.94-.05.23-.1.47-.15.7-.02.08,0,.2-.13.18-.09-.01-.08-.11-.1-.18-.43-1.83-.61-3.68-.17-5.54.03-.11,0-.24.04-.33.25-.54.02-.89-.4-1.21-.29-.22-.57-.46-.8-.74-.35-.41-.78-.54-1.29-.56-.49-.02-.97-.08-1.46-.13-.22-.03-.28.03-.26.26.12,1.04.22,2.09.45,3.12.14.62-.19,1.09-.35,1.62-.14.47-.35.91-.54,1.36-.05.11-.07.29-.2.28-.17-.01-.13-.22-.16-.34-.15-.88-.32-1.75-.53-2.61-.06-.23-.15-.45-.29-.65-.44-.62-.88-1.25-1.3-1.88-.15-.23-.34-.33-.62-.34-.8-.01-1.6-.07-2.4-.08-.22,0-.33-.08-.4-.3-.51-1.44-1.04-2.87-1.55-4.31-.16-.47-.42-.82-.86-1.08-.92-.55-1.82-1.15-2.72-1.74-.18-.11-.35-.15-.52-.02-.56.43-1.21.7-1.79,1.09-1.15.79-2.49,1.01-3.81,1.31-.46.11-.92.21-1.38.32-.05-.11.02-.13.07-.16,1.01-.53,1.95-1.17,2.91-1.79.58-.37,1.01-.89,1.47-1.39.81-.88,1.62-1.76,2.42-2.65.13-.15.24-.09.36-.02,1.43.79,2.85,1.63,4.31,2.37.95.48,1.59,1.16,2.01,2.11.3.68.71,1.32,1.06,1.99.11.2.25.28.48.28,1.67.04,3.33.09,5,.13.21,0,.39.05.57.15,1.36.74,2.73,1.48,4.1,2.22.53.28.86.76,1.22,1.2.39.47.79.94,1.16,1.43.19.26.39.27.68.19,1.16-.32,2.31-.69,3.47-1.05.6-.19.63-.17.9.38.7,1.41,1.49,2.78,2.08,4.25.16.39.21.8.24,1.21.06.86.17,1.72.27,2.57.03.22.03.44.04.65-.04,0-.08.02-.12.02Z"/>
    <path class="cls-2" d="M32.78,72.03c.03-.82-.07-1.63,0-2.44.01-.14.07-.23.18-.32.25-.19.49-.39.74-.57.28-.2.45-.45.53-.79.28-1.21.62-2.4.97-3.59.05-.17.1-.34.28-.42,1.19-.55,1.86-1.59,2.49-2.67.13-.23.3-.38.55-.48.65-.25,1.27-.59,1.95-.79.18-.05.28-.2.38-.35.49-.7.98-1.39,1.45-2.1.11-.17.21-.2.4-.14.82.23,1.65.43,2.46.67.32.09.31-.13.33-.3.12-.84.23-1.69.32-2.53.02-.22.1-.38.25-.52,1.3-1.2,2.45-2.54,3.55-3.92.13-.16.28-.29.45-.39,1.24-.75,2.49-1.49,3.73-2.25.3-.18.49-.19.74.12.49.59,1.03,1.13,1.58,1.66.85.81,1.46,1.77,1.93,2.83.04.09.07.19.13.27.78,1.1.57,2.36.57,3.62-.19-.08-.23-.23-.28-.36-.15-.38-.29-.77-.43-1.16-.03-.08-.06-.17-.11-.24-.73-.94-1.45-1.89-2.67-2.26-.51-.16-1.01-.37-1.51-.57-.21-.09-.35-.04-.49.12-1.39,1.55-3,2.83-4.79,3.89-.24.14-.35.31-.39.59-.24,1.41-.5,2.81-.74,4.21-.05.3-.15.34-.45.27-1.08-.26-2.18-.47-3.27-.71-.19-.04-.3,0-.39.18-.16.32-.35.63-.52.95-.34.66-.93,1.07-1.52,1.48-.27.19-.61.15-.91.15-.66,0-1.21.22-1.72.64-.41.34-.85.66-1.3.96-.28.19-.43.44-.53.75-.28.84-.59,1.68-.84,2.53-.18.61-.5,1.07-1.06,1.39-.51.28-.81.76-1.09,1.26-.22.4-.47.8-.71,1.2-.04.06-.06.14-.23.14Z"/>
    <path class="cls-2" d="M80.69,48.25c-.62-.69-1.23-1.38-1.85-2.07-.27-.31-.57-.6-.81-.94-.49-.7-1.18-1.04-1.99-1.22-.41-.09-.83-.18-1.22-.37-.1-.05-.2-.01-.29.03-1.11.56-2.21,1.12-3.32,1.67-.18.09-.21.24-.22.4-.06.56-.1,1.12-.16,1.68-.01.12.06.29-.09.33-.12.03-.21-.12-.29-.22-.43-.56-.86-1.11-1.27-1.68-.15-.21-.32-.33-.58-.35-.74-.03-1.42-.26-2.08-.59-.24-.12-.34-.03-.48.16-.52.67-.56,1.45-.55,2.25,0,.27,0,.54-.09.84-.36-.5-.73-.99-1.08-1.49-.25-.36-.5-.72-.74-1.08-.12-.18-.22-.11-.38-.05-1.36.55-2.3,1.62-3.26,2.65-.39.41-.77.82-1.16,1.23-.07.07-.11.17-.29.15.17-.57.33-1.14.51-1.71.2-.64.42-1.28.63-1.93.07-.23.21-.42.37-.6,1.55-1.8,3.46-3.18,5.36-4.57.64-.46,1.27-.93,1.9-1.4.16-.12.31-.15.52-.1.86.22,1.72.42,2.59.62.22.05.4.13.55.3.38.43.77.86,1.13,1.31.17.21.32.26.57.15.64-.29,1.29-.55,1.93-.84.16-.08.28-.06.41.04,1.06.79,2.13,1.59,3.19,2.38.27.2.4.51.54.8.65,1.29,1.28,2.58,1.92,3.87.05.11.11.23.07.36h0Z"/>
    <path class="cls-2" d="M85.18,43.05c.15.21.14.47.18.71.2,1.16.38,2.32.56,3.48.02.13.02.26-.05.4-.22-.7-.47-1.39-.66-2.09-.66-2.46-1.85-4.66-3.39-6.65-.88-1.13-1.98-2.08-2.98-3.12-.16-.16-.31-.33-.47-.49-1.18-1.26-1.39-1.39-3.05-1.91-.22-.07-.29.04-.35.21-.26.7-.53,1.4-.8,2.1-.04.1-.03.27-.16.27-.16,0-.13-.18-.18-.29-.5-1.2-.61-2.51-1.06-3.71-.32-.83-.89-1.5-1.84-1.69-.81-.16-.8-.16-1.21.59-.25.46-.52.91-.78,1.37-.05.09-.07.25-.22.2-.11-.04-.05-.18-.06-.27-.12-1.27-.18-2.55-.51-3.79-.42-1.59-1.09-3.06-2.05-4.4-.17-.24-.16-.37.11-.48.07-.03.13-.08.2-.11q.68-.38,1.18.25c.51.63,1.03,1.26,1.54,1.89.12.15.26.21.45.21,1.2,0,2.41-.02,3.59-.24.28-.05.42.09.55.28,1.36,1.91,2.79,3.76,4.09,5.71.87,1.31,1.77,2.61,2.61,3.95.6.96,1.28,1.8,2.24,2.4.26.16.4.44.54.71.53.99,1.05,1.99,1.46,3.03-.03.02-.13-.09-.08.06.15.4.28.8.41,1.2.03.11.08.17.19.21Z"/>
    <path class="cls-2" d="M31.5,55.03c-.56-.58-.95-1.27-1.42-1.9-.21-.28-.46-.49-.75-.67-.99-.61-2.08-.83-3.22-.86-.45-.01-.77.26-1.13.46-.26.14-.52.3-.77.46-.19.12-.25.06-.22-.14.21-1.35.3-2.71.63-4.04.15-.62.55-1.15.84-1.72.04-.09.12-.17.14-.26.29-.95.97-1.41,1.91-1.57.38-.06.75-.18,1.11-.35.23-.11.49-.06.74,0,.72.17,1.44.34,2.15.53.73.19,1.46.35,2.22.29.25-.02.5,0,.75,0q1.52,0,2.66,1c.35.31.72.59,1.02.94.15.18.27.37.27.6,0,.61-.03,1.22.04,1.91-.29-.29-.43-.58-.5-.86-.26-.94-.97-1.31-1.85-1.58.11.57.61.98.61,1.54,0,.55-.08,1.09-.12,1.66-.2-.03-.22-.18-.27-.3-.14-.35-.28-.7-.4-1.05-.14-.41-.38-.7-.79-.9-.59-.29-1.16-.64-1.73-.97-.11-.06-.22-.09-.32-.05-.72.28-1.47.5-2.17.84.06.17.22.16.34.21.72.3,1.45.59,2.18.88.24.09.31.23.3.48-.02.54,0,1.08,0,1.62,0,.09.07.23-.06.26-.11.03-.17-.09-.22-.17-.2-.34-.42-.68-.6-1.04-.09-.17-.21-.27-.4-.29-.51-.06-1.02-.1-1.53-.17-.58-.08-1.07.21-1.58.4-.16.06-.2.15-.04.27.34.26.68.54,1.04.79.41.27.49.71.64,1.11.32.85.38,1.75.53,2.64Z"/>
    <path class="cls-2" d="M48.59,66.84c.17-.74.49-1.43.48-2.19,0-.38.05-.75.02-1.13-.15-1.53.38-2.94.76-4.37.16-.6.32-1.21.46-1.82.05-.21.18-.28.35-.34.6-.21,1.21-.42,1.81-.61.32-.1.58-.26.75-.57.16-.29.4-.54.59-.82.13-.18.3-.18.47-.12.49.17.97.34,1.45.52.21.08.35.22.48.41.7,1.02,1.4,2.05,2.1,3.07.12.18.19.37.19.6,0,1.16,0,2.33,0,3.49,0,.66-.35,1.22-.56,1.82-.11.32-.25.63-.38.94-.04.09-.04.26-.19.23-.12-.03-.06-.17-.06-.26,0-.75,0-1.5,0-2.25,0-.23-.04-.45-.16-.65-.39-.64-.79-1.28-1.18-1.92-.04-.06-.08-.14-.16-.14-.11,0-.12.11-.15.19-.15.36-.3.72-.45,1.07-.04.1-.06.25-.2.23-.13-.02-.14-.16-.17-.27-.18-.65-.35-1.3-.53-1.96-.09-.36-.16-.38-.49-.22-.4.19-.65.44-.68.93-.03.6-.17,1.19-.25,1.78-.02.14-.07.24-.18.31-.17.13-.34.26-.52.37-1.38.81-2.16,2.2-3.18,3.36-.11.13-.19.29-.41.32Z"/>
    <path class="cls-2" d="M103.09,66.2c-.26-.38-.56-.73-.76-1.14-.55-1.07-1.35-1.69-2.57-1.91-1.09-.19-2.17-.37-3.27-.46-.32-.03-.47-.13-.55-.47-.18-.71-.44-1.41-.67-2.11-.06-.18-.17-.19-.34-.19-.79-.04-1.45.29-2.08.71-.05.03-.11.04-.21.08.06-.69.24-1.33.35-1.98.04-.21.09-.42.13-.62.02-.09.09-.21-.01-.28-.1-.07-.17.05-.26.09-.99.46-1.36,1.46-1.96,2.26-.04.05-.06.11-.1.16-.04.06-.09.15-.17.13-.12-.02-.08-.14-.08-.22.02-1.51.05-3.03.07-4.54,0-.17.06-.28.2-.37.63-.43,1.26-.86,1.89-1.3.19-.13.35-.17.58-.05.68.35,1.37.67,2.07.98.2.09.29.26.38.44.74,1.53,1.31,3.14,2,4.69.17.38.38.51.8.49.94-.05,1.88-.02,2.82-.05.26,0,.41.08.53.31.4.77.81,1.52,1.23,2.28.09.16.11.34.12.51.04.84,0,1.67-.13,2.54Z"/>
    <path class="cls-2" d="M49.05,46.31c-.57-.38-1.1-.67-1.56-1.04-.76-.62-1.6-.49-2.42-.26-.89.24-1.76.58-2.62.91-.35.13-.57.06-.82-.21-.79-.86-1.6-1.69-2.4-2.54-.23-.25-.5-.4-.83-.48-.74-.18-1.48-.36-2.22-.53-.14-.03-.27-.07-.32-.22-.14-.39-.32-.76-.43-1.16-.08-.29-.16-.26-.38-.13-.7.44-1.41.85-2.12,1.27-.02,0-.04,0-.07,0-.05-.07,0-.12.03-.16.84-1.17,1.68-2.34,2.51-3.52.14-.2.22-.17.36,0,.45.54.92,1.06,1.37,1.6.21.25.45.41.77.5.52.14,1.02.33,1.54.47.23.06.4.18.54.37.68.89,1.38,1.78,2.06,2.68.15.2.29.27.54.19.32-.11.66-.15.98-.27.82-.33,1.67-.21,2.52-.2.63,0,1,.32,1.35.77.41.53.88,1.02,1.33,1.53.1.11.22.2.3.46Z"/>
    <path class="cls-2" d="M112.39,46.64c.57.07,1.07.3,1.59.48.59.21,1.17.43,1.76.64.22.08.42.05.64-.08.97-.58,1.95-1.13,2.92-1.69.14-.08.25-.07.38.02.78.49,1.58.97,2.36,1.47.64.41,1.02,1.06,1.46,1.65.72.96,1.42,1.94,2.12,2.91.02.03.02.06.05.17-.46-.23-.86-.44-1.27-.65-.27-.14-.54-.26-.8-.42-.54-.32-1.11-.5-1.75-.42-1.21.14-2.3-.24-3.42-.65-2.17-.79-4.05-2.06-5.93-3.34-.04-.03-.07-.06-.11-.09Z"/>
    <path class="cls-2" d="M110.8,50.77c.19-.08.33,0,.47.04.66.2,1.31.41,1.97.6.2.06.32.16.41.34.36.7.75,1.39,1.1,2.09.14.27.27.33.55.18.41-.21.85-.36,1.27-.54.13-.05.24-.02.35.04.38.23.76.43,1.13.67.24.16.46.21.74.16.62-.09,1.24-.15,1.86-.24.3-.04.51.04.72.27.77.81,1.56,1.59,2.34,2.38.07.07.13.15.2.23-.18.07-.29-.04-.4-.09-.82-.39-1.65-.79-2.47-1.19-.25-.12-.5-.14-.77-.09-1.75.32-3.5.63-5.24.96-.27.05-.41.01-.54-.28-.53-1.24-1.11-2.46-1.66-3.7-.12-.27-.31-.47-.54-.65-.5-.39-.99-.79-1.51-1.2Z"/>
    <path class="cls-2" d="M88.65,43.6c-1.09-1.88-2.17-3.77-3.25-5.65-.2-.35-.43-.66-.76-.92-.9-.7-1.74-1.47-2.68-2.11-.8-.55-1.1-1.32-1.33-2.17-.07-.25-.1-.51-.27-.73-.05-.07-.11-.17-.04-.24.09-.09.15.01.22.06.8.63,1.68,1.13,2.51,1.72.43.3.45.29.77-.14.07-.1.13-.25.26-.25.16,0,.16.18.2.28.19.51.37,1.03.56,1.55.06.16.12.33.2.48.11.21.26.23.47.12.59-.31.59-.3.89.29.3.59.59,1.19.92,1.76.43.76.67,1.58.86,2.43.16.72.33,1.44.5,2.16.01.28,0,.56.03.85.01.15.13.36-.05.51Z"/>
    <path class="cls-2" d="M57.38,36.9c.98-1.52,1.94-3,2.9-4.48.5-.78.99-1.57,1.5-2.34.33-.5.32-1.07.41-1.62.04-.26.14-.43.36-.57.63-.39,1.25-.78,1.87-1.18.23-.15.33-.13.32.18-.01.63,0,1.25,0,1.88,0,.29-.07.52-.29.73-.39.37-.73.79-1.12,1.17-.37.37-.57.82-.69,1.31-.19.76-.4,1.52-.58,2.29-.04.15-.1.24-.23.31-1.43.77-2.86,1.55-4.29,2.32-.03.02-.07,0-.16.02Z"/>
    <path class="cls-2" d="M64.28,32.2c.36.59.48,1.18.69,1.73.2.53.34,1.07.57,1.59.11.24.22.29.45.26.92-.11,1.85-.15,2.76-.31.1-.02.22-.07.36.05-3.1,1.94-6.14,3.93-9.29,5.75.94-1.21,1.86-2.44,2.82-3.64.33-.42.58-.86.7-1.39.28-1.26.57-2.51.86-3.77.02-.07.05-.14.09-.28Z"/>
    <path class="cls-5" d="M88.65,43.6c.18-.15.06-.36.05-.51-.03-.28-.02-.57-.03-.85.24.64.32,1.31.52,2.02-.35-.15-.42-.43-.53-.67Z"/>
    <path class="cls-1" d="M85.18,43.05c-.1-.03-.15-.1-.19-.21-.13-.4-.26-.8-.41-1.2-.06-.15.05-.05.08-.06.24.47.41.96.52,1.47Z"/>
    <path class="cls-2" d="M80.69,48.25s.02.02.04.02c0,0-.02,0-.02,0,0,0,0-.02-.01-.03,0,0,0,0,0,0Z"/>
  </g>
</svg>